<?xml version="1.0" encoding="utf-8"?>
<!-- Generator: Adobe Illustrator 23.0.6, SVG Export Plug-In . SVG Version: 6.00 Build 0)  -->
<svg version="1.1" id="BACKGROUND" xmlns="http://www.w3.org/2000/svg" xmlns:xlink="http://www.w3.org/1999/xlink" x="0px" y="0px"
	 viewBox="0 0 750 500" style="enable-background:new 0 0 750 500;" xml:space="preserve">
<style type="text/css">
	.st0{fill:url(#SVGID_1_);}
	.st1{opacity:0.3;fill:url(#SVGID_2_);enable-background:new    ;}
	.st2{opacity:0.3;fill:url(#SVGID_3_);enable-background:new    ;}
	.st3{opacity:0.3;fill:url(#SVGID_4_);enable-background:new    ;}
	.st4{opacity:0.3;fill:url(#SVGID_5_);enable-background:new    ;}
	.st5{fill:#FFFFFF;}
</style>
<linearGradient id="SVGID_1_" gradientUnits="userSpaceOnUse" x1="-101.3447" y1="-74.8064" x2="680.4092" y2="461.5324" gradientTransform="matrix(1 0 0 -1 0 502)">
	<stop  offset="0" style="stop-color:#843C71"/>
	<stop  offset="1" style="stop-color:#906BD6"/>
</linearGradient>
<rect class="st0" width="750" height="500"/>
<g>
	
		<linearGradient id="SVGID_2_" gradientUnits="userSpaceOnUse" x1="-227.9302" y1="109.7014" x2="553.8257" y2="646.0415" gradientTransform="matrix(1 0 0 -1 0 502)">
		<stop  offset="0" style="stop-color:#843C71"/>
		<stop  offset="1" style="stop-color:#906BD6"/>
	</linearGradient>
	<path class="st1" d="M322.8,77.5c46.1-7.9,92.7-4.4,139.1-5c77.8-1,161.1-16.4,221.6-72.5H0v260.2c42-20.3,81.1-53,119.6-82.2
		C181.6,130.9,249.5,90,322.8,77.5z"/>
	
		<linearGradient id="SVGID_3_" gradientUnits="userSpaceOnUse" x1="-10.2058" y1="-234.763" x2="798.4427" y2="320.0275" gradientTransform="matrix(1 0 0 -1 0 502)">
		<stop  offset="0" style="stop-color:#843C71"/>
		<stop  offset="1" style="stop-color:#906BD6"/>
	</linearGradient>
	<path class="st2" d="M664,292.7c-25.3,2.6-51.7,3.1-75.2-6.6c-24.2-9.9-43-29.6-65.5-42.9c-45.9-27-103.5-25-155.4-12.6
		C261.7,256,168.2,321.1,92.6,400.1c-29.8,31.1-57.2,64.6-81.9,99.9H750V276.4C721.9,284.2,693.1,289.7,664,292.7z"/>
</g>
<g>
	<g>
		
			<linearGradient id="SVGID_4_" gradientUnits="userSpaceOnUse" x1="581.59" y1="348.6614" x2="711.17" y2="348.6614" gradientTransform="matrix(1 0 0 -1 0 502)">
			<stop  offset="0" style="stop-color:#843C71"/>
			<stop  offset="1" style="stop-color:#906BD6"/>
		</linearGradient>
		<path class="st3" d="M705.1,158.8c-10.5-16.7-27.6-30.2-48.5-27.1c-5.2,0.8-10,2.8-14.7,5.2c-9,4.7-15.8,12.5-24.9,17.1
			c-6.7,3.4-14.3,3.2-21.1,6.3c-5.3,2.4-10,6.3-12.7,11.4c-0.6,1.1-1.1,2.4-1.5,3.7h129.6C709.9,169.5,708.4,164.1,705.1,158.8z"/>
		
			<linearGradient id="SVGID_5_" gradientUnits="userSpaceOnUse" x1="52.2" y1="228.0375" x2="167.46" y2="228.0375" gradientTransform="matrix(1 0 0 -1 0 502)">
			<stop  offset="0" style="stop-color:#843C71"/>
			<stop  offset="1" style="stop-color:#906BD6"/>
		</linearGradient>
		<path class="st4" d="M166.6,292c-1.9-3.8-4.4-7.1-7.4-10.1c-5.5-5.5-12.8-4.5-18.9-8.3c-0.9-0.5-1.7-1.5-2.4-2.3
			c-2.4-2.4-4.5-5-6.6-7.6c-3.8-4.7-9.1-7.9-14.9-9.1c-9.7-2-20.5,2-26.8,9.4c-3.2,3.7-6.2,8.8-10.8,11.1c-3.6,1.8-7.3,1.8-11,2.9
			c-5.3,1.5-10.1,4.9-12.9,9.7c-0.9,1.5-2.3,4-2.5,6.1h115.3C167.2,293.1,166.8,292.5,166.6,292z"/>
	</g>
	<g>
		<g>
			<circle class="st5" cx="189.4" cy="293.8" r="1.8"/>
			<circle class="st5" cx="197" cy="399.3" r="1.8"/>
			<circle class="st5" cx="639.1" cy="347.7" r="1.8"/>
			<circle class="st5" cx="129.2" cy="225.2" r="1.8"/>
			<circle class="st5" cx="644.6" cy="74.5" r="1.8"/>
			<circle class="st5" cx="151.5" cy="46" r="1.8"/>
			<circle class="st5" cx="86.7" cy="360.8" r="1.8"/>
			<circle class="st5" cx="649.1" cy="333.6" r="1.8"/>
			<circle class="st5" cx="692.8" cy="98.9" r="1.8"/>
			<path class="st5" d="M87.2,133.5c0,0.3-0.2,0.5-0.5,0.5s-0.5-0.2-0.5-0.5s0.2-0.5,0.5-0.5C87,133,87.2,133.2,87.2,133.5z"/>
			<path class="st5" d="M519.1,21.9c0,0.3-0.2,0.5-0.5,0.5c-0.3,0-0.5-0.2-0.5-0.5s0.2-0.5,0.5-0.5
				C518.8,21.3,519.1,21.6,519.1,21.9z"/>
			<circle class="st5" cx="681" cy="104.8" r="0.5"/>
			<path class="st5" d="M699.3,389c0,0.3-0.2,0.5-0.5,0.5s-0.5-0.2-0.5-0.5s0.2-0.5,0.5-0.5S699.3,388.7,699.3,389z"/>
			<path class="st5" d="M53.2,483.4c0,0.3-0.2,0.5-0.5,0.5s-0.5-0.2-0.5-0.5s0.2-0.5,0.5-0.5S53.2,483.1,53.2,483.4z"/>
			<path class="st5" d="M76.4,152.1c0,0.3-0.2,0.5-0.5,0.5c-0.3,0-0.5-0.2-0.5-0.5c0-0.3,0.2-0.5,0.5-0.5
				C76.2,151.6,76.4,151.8,76.4,152.1z"/>
			<circle class="st5" cx="96.4" cy="350.9" r="0.5"/>
		</g>
		<path class="st5" d="M127.2,318c-0.8,6.1-4.3,10.8-8.7,12c-0.2,0.1-0.2,0.5,0,0.5c4.4,1.2,7.9,6,8.7,12c0,0.3,0.4,0.3,0.4,0
			c0.8-6.1,4.3-10.8,8.7-12c0.2-0.1,0.2-0.5,0-0.5c-4.4-1.2-7.9-6-8.7-12C127.6,317.6,127.3,317.6,127.2,318z"/>
		<path class="st5" d="M562.6,121.2c-0.8,6.1-4.3,10.8-8.7,12c-0.2,0.1-0.2,0.5,0,0.6c4.4,1.2,7.9,5.9,8.7,12c0,0.3,0.4,0.3,0.4,0
			c0.8-6.1,4.3-10.8,8.7-12c0.2-0.1,0.2-0.5,0-0.6c-4.4-1.2-7.9-5.9-8.7-12C562.9,120.9,562.6,120.9,562.6,121.2z"/>
	</g>
</g>
<g>
	<path class="st5" d="M566.1,334.8c-0.1,0-0.2,0-0.3,0c-0.6,0-1.3,0-1.9-0.1c-0.7-0.1-1.4-0.1-2-0.1c-0.7-0.1-1.3-0.1-2-0.2
		c-0.6-0.1-1.3-0.2-1.9-0.3c-0.9-0.2-1.9-0.3-2.8-0.5c-2.6-0.6-5.2-1.4-7.7-2.4c-2.7-1.1-5.2-2.4-7.6-3.9c-3.1-2-6-4.2-8.7-6.7
		c-3.5-3.3-6.4-6.9-8.8-11c-2.1-3.5-3.7-7.2-4.9-11.1c-0.5-1.7-1-3.5-1.3-5.3c-0.2-0.9-0.3-1.8-0.5-2.7c-0.1-0.8-0.2-1.6-0.3-2.4
		c-0.1-0.6-0.1-1.1-0.1-1.7c-0.1-1-0.1-1.9-0.1-2.9c0-0.9,0-1.9,0-2.8c0-0.6,0.1-1.2,0.1-1.8c0-0.4,0.1-0.9,0.1-1.3
		c0.1-0.5,0.1-1,0.2-1.5c0.1-0.8,0.3-1.6,0.4-2.4c0.3-1.7,0.7-3.3,1.1-4.9c0.9-3.2,2.1-6.3,3.6-9.3c1.9-3.8,4.3-7.4,7.2-10.6
		c2.9-3.3,6.1-6.2,9.6-8.7c3.6-2.5,7.5-4.5,11.6-6c2.5-0.9,5-1.6,7.6-2.1c0.9-0.2,1.9-0.3,2.8-0.5c0.6-0.1,1.2-0.1,1.8-0.2
		c0.5,0,1-0.1,1.5-0.1c0,0,0.1,0,0.1,0c0.9,0,1.7-0.1,2.6-0.1c0.2,0,0.3,0,0.5,0c1,0,2,0.1,3.1,0.1c0.5,0,1,0.1,1.5,0.1
		c0.6,0.1,1.3,0.1,1.9,0.2c0.9,0.1,1.8,0.3,2.7,0.4c1.3,0.2,2.6,0.5,3.8,0.9c2.3,0.6,4.5,1.4,6.6,2.3c3.1,1.3,6,2.9,8.7,4.8
		c2.9,2,5.5,4.2,7.9,6.7c3,3.1,5.5,6.5,7.6,10.2c1.4,2.5,2.7,5.2,3.7,7.9c0.8,2.2,1.4,4.4,1.9,6.7c0.3,1.3,0.5,2.6,0.7,3.9
		c0.1,0.8,0.2,1.6,0.3,2.4c0.1,0.5,0.1,0.9,0.1,1.4c0.1,0.9,0.1,1.9,0.1,2.8c0,0.6,0,1.1,0,1.7c0,0.2,0,0.4,0,0.5
		c0,0.8-0.1,1.7-0.1,2.5c-0.1,0.7-0.1,1.4-0.2,2.2c-0.1,0.7-0.2,1.3-0.3,2c-0.2,1.1-0.4,2.3-0.6,3.4c-0.5,2.2-1.1,4.4-1.9,6.5
		c-0.9,2.6-2,5-3.4,7.4c-1.4,2.6-3,5-4.9,7.3c-1.6,2.1-3.4,4-5.4,5.8c-2.8,2.6-5.8,4.8-9.1,6.7c-3.2,1.8-6.6,3.3-10.1,4.4
		c-1.8,0.6-3.7,1-5.5,1.4c-0.8,0.1-1.5,0.2-2.3,0.4c-0.7,0.1-1.4,0.2-2.1,0.3c-0.8,0.1-1.6,0.1-2.3,0.2c-0.4,0-0.8,0.1-1.2,0.1
		C566.9,334.8,566.5,334.8,566.1,334.8C566.1,334.8,566.1,334.8,566.1,334.8z M568.3,263.8L568.3,263.8c0-0.2,0.1-0.3,0.2-0.4
		c0.5-0.5,1-1.2,1.3-1.8c0-0.1,0.1-0.2,0-0.3c-0.1,0-0.1,0.1-0.2,0.1c-0.1,0.1-0.2,0.2-0.3,0.4c-0.2,0.3-0.5,0.5-0.9,0.5
		c-0.3,0.1-0.6,0.1-0.9,0.1c-0.2,0-0.4,0.1-0.7,0.1c-0.1,0-0.1,0.1-0.2,0.1c0.1,0.3,0.4,0.2,0.6,0.4c-0.6,0.1-1.1-0.1-1.6-0.3
		c-0.4-0.2-0.7-0.4-1-0.5c-0.3-0.1-0.5-0.3-0.8-0.4c-0.1-0.1-0.2-0.1-0.3,0c0,0.1,0,0.2,0,0.2c0,0.4,0.1,0.7,0.2,1.1
		c0.1,0.5,0.3,0.8,0.7,1.1c0.3,0.2,0.6,0.5,0.9,0.7c0.2,0.1,0.4,0.3,0.7,0.3c0,0,0.1,0,0.2,0.1c-0.1,0.1-0.2,0.2-0.2,0.2
		c-0.2,0.1-0.3,0.2-0.5,0.1c-0.2-0.1-0.3-0.2-0.5-0.3c-0.4-0.3-0.7-0.5-1-0.8c-0.2-0.1-0.3-0.2-0.5-0.4c-0.3-0.3-0.5-0.6-0.5-1
		c-0.1-0.4-0.1-0.9-0.2-1.3c0-0.1,0-0.3-0.1-0.4c0,0-0.1,0-0.1,0c0,0-0.1,0-0.1,0.1c0,0.1,0,0.1,0,0.2c0,0.3,0,0.6,0,0.9
		c0,0.3,0,0.5,0,0.8c-0.1,0.5-0.2,1-0.4,1.5c-0.1,0.3-0.3,0.7-0.4,1c-0.1,0.3-0.2,0.6-0.1,1c0,0.1,0.1,0.2,0.1,0.4
		c0,0.1,0.1,0.1,0.2,0c0-0.1,0.1-0.1,0.1-0.2c0.1-0.2,0.2-0.5,0.4-0.7c0-0.1,0.1-0.2,0.2-0.1c0.1,0.1,0.2,0.3,0.4,0.5
		c0.5,0.7,0.8,1.5,1.2,2.3c0.2,0.5,0.4,1.1,0.6,1.7c0.2,0.5,0.5,0.9,1.1,1.1c0.8,0.3,1.6,0.2,2.4-0.1c0,0,0.1-0.1,0.1-0.2
		c-0.1,0-0.1,0-0.2,0c-0.3,0-0.6,0-0.8,0c-0.3,0-0.5,0-0.8-0.1c-0.5-0.1-0.9-0.4-1.1-0.9c-0.1-0.3-0.2-0.6-0.3-0.9
		c-0.3-1-0.7-1.9-1.2-2.7c-0.1-0.1-0.2-0.3-0.3-0.4c0.3,0.3,0.5,0.6,0.8,0.9c0.4,0.4,0.8,0.9,1.2,1.3c0.4,0.5,0.9,0.8,1.6,0.9
		c0.6,0.1,1.1,0.3,1.6,0.6c0.1,0,0.1,0.1,0.2,0.1c0,0,0.1,0,0.2,0c0,0,0-0.1,0-0.1c0-0.1-0.1-0.1-0.1-0.1c-0.2-0.2-0.5-0.3-0.7-0.5
		c-0.3-0.2-0.7-0.3-1-0.4c-0.5-0.2-0.9-0.5-1.3-0.9c-0.2-0.2-0.4-0.5-0.6-0.7c-0.3-0.3-0.6-0.7-0.9-1c-0.3-0.3-0.5-0.7-0.6-1.1
		c0-0.1-0.1-0.1,0-0.2c0.5,0.7,1.1,1.2,1.8,1.6c0.9,0.5,1.7,1,2.4,1.6c0.2,0.2,0.4,0.3,0.6,0.5c0,0,0.1,0.1,0.2,0
		c-0.1-0.2-0.2-0.4-0.4-0.5c-0.1-0.2-0.3-0.3-0.4-0.5c-0.1-0.2-0.3-0.3-0.4-0.5c-0.2-0.2-0.3-0.3-0.5-0.5c-0.2-0.1-0.4-0.3-0.5-0.4
		c-0.2-0.1-0.4-0.2-0.5-0.4c0.1,0,0.1-0.1,0.2-0.1c0.7-0.1,1.2-0.4,1.8-0.7c0.3-0.1,0.5-0.3,0.8-0.4c0.1,0,0.1,0,0.2,0
		c0,0.1,0,0.1,0,0.2c0.1,0.4,0.1,0.7,0.2,1.1c0.1,0.6,0.3,1.1,0.6,1.6c0,0.1,0.1,0.2,0.2,0.2c0.1-0.1,0.2-0.2,0.2-0.3
		c0.1-0.3,0.1-0.7,0.2-1c0.1-0.4,0.1-0.7,0.1-1.1c0.1-0.7,0.1-1.3,0-2c0-0.2,0-0.3-0.2-0.5c-0.1,0-0.2,0.1-0.2,0.1
		c-0.3,0.3-0.7,0.5-1.2,0.7C568.5,263.7,568.4,263.8,568.3,263.8z M596.4,308.2c0.1,0,0.1-0.1,0.2-0.1c0.1-0.1,0.2-0.2,0.2-0.3
		c2-2.6,3.6-5.3,5-8.2c0.8-1.8,1.5-3.7,2-5.6c0.4-1.3,0.7-2.7,0.9-4c0.1-0.6,0.2-1.2,0.3-1.8c0.1-0.7,0.1-1.4,0.2-2.1
		c0.1-0.8,0.1-1.6,0.1-2.5c0-0.7,0-1.5,0-2.2c0-0.8-0.1-1.6-0.2-2.4c-0.1-0.7-0.2-1.5-0.3-2.2c-0.2-1.3-0.5-2.6-0.8-3.9
		c-0.6-2.3-1.4-4.6-2.4-6.8c-1.1-2.3-2.4-4.4-3.8-6.5c-2-2.8-4.4-5.3-7.1-7.5c-2.5-2.1-5.3-3.8-8.3-5.1c-2.2-1-4.6-1.8-7-2.4
		c-0.9-0.2-1.9-0.4-2.8-0.5c-0.5-0.1-0.9-0.1-1.4-0.2c-0.4,0-0.8-0.1-1.1-0.1c-0.7-0.1-1.5-0.1-2.3-0.1c-0.6,0-1.2,0-1.8,0
		c-0.8,0-1.5,0-2.3,0.1c-0.7,0.1-1.4,0.2-2,0.2c-0.8,0.1-1.5,0.2-2.3,0.4c-1.5,0.3-3,0.7-4.4,1.2c-2.5,0.8-4.9,1.9-7.2,3.2
		c-2.2,1.3-4.2,2.7-6.1,4.4c-1.5,1.3-2.9,2.8-4.2,4.4c-2.3,2.7-4.2,5.7-5.6,8.9c-1.1,2.5-2,5.1-2.6,7.8c-0.2,1-0.4,2-0.6,3
		c-0.1,0.5-0.1,1-0.2,1.5c0,0.4-0.1,0.8-0.1,1.2c-0.1,0.7-0.1,1.4-0.1,2.2c0,1,0,2,0,3c0.1,0.8,0.1,1.7,0.2,2.5
		c0.1,0.8,0.2,1.7,0.4,2.5c0.3,1.6,0.7,3.2,1.1,4.8c0.8,2.6,1.9,5.2,3.2,7.6c1,1.8,2.1,3.5,3.4,5.1c0.1,0.1,0.1,0.1,0.2,0.2
		c0.1,0.1,0.2,0,0.3,0c0-0.1,0.1-0.2,0.1-0.3c1.3-4,2.5-7.9,3.8-11.9c0.5-1.6,1-3.2,1.5-4.7c0.1-0.4,0.3-0.6,0.6-0.8
		c0.4-0.2,0.7-0.4,0.9-0.7c0.4-0.4,0.8-0.9,1.1-1.5c0.1-0.1,0.1-0.3,0.2-0.5c0.1-0.2,0.2-0.3,0.5-0.3c0.1,0,0.2,0,0.3,0
		c0.2,0,0.3-0.1,0.4-0.3c0-0.1,0.1-0.2,0.1-0.2c0.1-0.6,0.2-0.5,0.7-0.4c0.6,0.2,1.2,0.4,1.7,0.6c0.9,0.3,1.8,0.4,2.8,0.5
		c0.6,0.1,1.2,0,1.8,0.1c0.1,0,0.3,0,0.4,0c0.7,0,1.4-0.1,2.1-0.1c0.2,0,0.4,0,0.6-0.2c0-0.1,0-0.3,0-0.4c-0.2-0.6-0.3-1.1-0.4-1.7
		c-0.1-0.4-0.2-0.9-0.4-1.3c-0.1-0.3-0.1-0.3-0.4-0.3c-0.3,0-0.7,0-1,0c-0.4,0-0.7,0.1-0.8,0.5c0,0-0.1,0.1-0.1,0.1
		c-0.2-0.4-0.3-0.8-0.4-1.1c0-0.1,0-0.2,0-0.3c0.1,0,0.2,0.1,0.3,0.1c0.1,0,0.3,0.1,0.4,0c0.5-0.1,1-0.2,1.4-0.4
		c0.1-0.2,0-0.3,0-0.4c-0.1-0.1-0.2-0.3-0.3-0.4c-0.1-0.2-0.2-0.3-0.3-0.5c-0.2-0.5-0.2-1,0.1-1.5c0.1-0.1,0.1-0.2,0.2-0.3
		c0.2-0.3,0.3-0.7,0.1-1.1c-0.1-0.3-0.2-0.6-0.2-0.9c-0.1-0.4-0.3-0.8-0.6-1c-0.1-0.1-0.2-0.1-0.3-0.2c-0.1-0.1-0.2-0.3-0.1-0.5
		c0.1-0.4,0.3-0.7,0.7-0.9c0.4-0.2,0.9,0,1.1,0.4c0.1,0.2,0.2,0.4,0,0.6c-0.1,0.1-0.2,0.3-0.2,0.4c-0.1,0.2-0.2,0.4-0.2,0.7
		c0.1,0.3,0.2,0.7,0.3,0.9c0,0.1,0.1,0.1,0.2,0.1c0.1-0.1,0.1-0.2,0.2-0.3c0.2-0.4,0.3-0.7,0.3-1.1c0.1-0.6,0.2-1.2,0.3-1.7
		c0.3-1.2,0.7-2.3,1.2-3.4c0.7-1.5,1-3.1,1.2-4.7c0-0.5,0.1-1,0.1-1.5c0-0.4,0.1-0.8,0.2-1.2c0.2-1,0.8-1.7,1.6-2.3
		c0.3-0.2,0.6-0.4,1-0.6c0.1-0.1,0.2-0.1,0.2-0.2c0.1-0.1,0.1-0.2,0.1-0.3c0-0.1,0-0.1-0.1-0.2c-0.1-0.2,0-0.5,0.1-0.7
		c0.1-0.1,0.2-0.2,0.2-0.2c0.1-0.1,0.2-0.2,0.2-0.2c0.2-0.2,0.2-0.4,0-0.6c0-0.1-0.1-0.1-0.2-0.2c-0.3-0.4-0.3-0.7-0.1-1.1
		c0.3-0.5,0.4-1,0.5-1.6c0.1-0.6,0-1.3-0.3-1.8c-0.2-0.4-0.3-0.8-0.3-1.2c-0.1-0.4,0.1-0.7,0.4-0.9c0.3-0.2,0.5-0.5,0.7-0.9
		c0.1-0.4,0.4-0.7,0.8-0.8c0.2-0.1,0.4-0.2,0.6-0.2c0.5-0.1,1-0.2,1.5-0.2c0.6,0,1.1,0.1,1.7,0.3c0.5,0.2,0.9,0.6,1.1,1.2
		c0.1,0.3,0.3,0.6,0.6,0.7c0.3,0.1,0.4,0.4,0.5,0.7c0,0.3,0.1,0.6,0,0.9c0,0.2-0.1,0.3-0.1,0.5c0,0.2-0.1,0.4-0.2,0.6
		c-0.2,0.2-0.3,0.4-0.5,0.6c-0.3,0.4-0.3,0.9-0.1,1.4c0.1,0.2,0.3,0.4,0.4,0.6c0.4,0.5,0.5,1.1,0.3,1.7c-0.1,0.2-0.1,0.4-0.1,0.7
		c0,0.1,0,0.2,0,0.3c0,0.2,0.2,0.3,0.4,0.3c0.3,0,0.6-0.1,0.8-0.1c0.7-0.1,1.4-0.2,2.1-0.2c0.9,0,1.8,0,2.7,0c0.4,0,0.7,0,1.1-0.1
		c0.7-0.1,1.1-0.5,1.5-1.1c0.5-0.8,1-1.6,1.5-2.4c0.7-1.1,1.1-2.2,1.3-3.4c0.1-0.3,0.1-0.7,0.2-1c0.1-0.2,0.1-0.4,0.3-0.5
		c0.2-0.2,0.5-0.3,0.8-0.2c0.2,0.1,0.4,0.1,0.5,0.1c0.3,0.1,0.5,0.2,0.7,0.5c0.1,0.2,0.2,0.4,0.1,0.7c-0.1,0.2-0.1,0.4-0.3,0.5
		c-0.1,0.1-0.3,0.3-0.4,0.4c-0.4,0.3-0.6,0.8-0.7,1.3c0,0.3-0.1,0.6-0.3,0.9c-0.1,0.1-0.1,0.2-0.2,0.3c-0.1,0.1,0,0.3,0,0.3
		c0.1,0.1,0.2,0,0.3,0c0,0,0,0,0,0c0.5-0.3,1.1-0.4,1.7-0.5c0.2,0,0.3,0,0.4,0.2c0,0.1,0.1,0.2,0.1,0.3c0.2,0.5,0.3,1,0.4,1.5
		c0.5,1.7,1.1,3.3,1.6,4.9c0.1,0.3,0.2,0.5,0.5,0.7c0.1,0.1,0.1,0.1,0.2,0.2c0.1,0.1,0.1,0.3,0.1,0.4c0,0.1-0.1,0.3-0.2,0.3
		c-0.2,0.1-0.3,0.2-0.5,0.2c-0.5,0.1-1,0.2-1.6,0.2c-0.5,0-1,0-1.5-0.1c-0.5-0.1-0.9-0.2-1.3-0.4c-0.1-0.1-0.2-0.1-0.3-0.2
		c-0.1-0.1-0.1-0.2,0-0.3c0,0,0.1-0.1,0.1-0.1c0.3-0.3,0.5-0.8,0.6-1.2c0.1-0.3,0.2-0.6,0.3-1c0.4-1.3,0.7-2.7,1.1-4
		c0-0.1,0.1-0.3,0.1-0.4c0-0.1-0.1-0.2-0.2-0.2c-0.1,0-0.2,0.1-0.2,0.1c-0.1,0.1-0.3,0.1-0.4,0.2c-0.6,0.3-1.1,0.5-1.7,0.8
		c-0.3,0.1-0.5,0.3-0.6,0.6c-0.1,0.2-0.1,0.4-0.2,0.6c-0.1,0.2-0.2,0.5-0.3,0.7c-0.2,0.4-0.2,0.9-0.1,1.3c0.2,0.5,0.3,1,0.5,1.5
		c0.3,0.7,0.5,1.4,0.9,2c0.1,0.2,0.2,0.5,0.3,0.8c0.1,0.3,0,0.5-0.2,0.7c-0.2,0.2-0.4,0.3-0.7,0.4c-0.3,0.1-0.6,0.2-1,0.2
		c-0.6,0-1.1,0-1.7,0c-0.4,0-0.8-0.1-1.1-0.2c-0.2-0.1-0.3-0.2-0.5-0.3c-0.2-0.2-0.3-0.4-0.2-0.7c0-0.1,0.1-0.2,0.1-0.2
		c0.1-0.2,0.2-0.5,0.3-0.7c0.1-0.7,0.3-1.3,0.5-2c0-0.1,0-0.1,0-0.2c0-0.1-0.1-0.2-0.2-0.1c0,0-0.1,0-0.1,0c-1,0.2-2,0.3-3,0.6
		c-0.5,0.1-1.1,0.3-1.6,0.6c-0.5,0.3-0.9,0.6-1.2,1.1c-0.3,0.4-0.5,0.8-0.7,1.3c-0.2,0.5-0.4,1.1-0.4,1.7c0,0.6-0.1,1.3-0.1,1.9
		c0,0.4,0,0.7-0.1,1c-0.1,0.4-0.1,0.8,0,1.2c0.1,0.6,0.3,1.1,0.4,1.7c0.1,0.5,0.3,1.1,0.6,1.5c0.3,0.4,0.3,0.9,0.2,1.4
		c-0.2,0.5-0.2,0.9-0.1,1.4c0.2,1.1,0.4,2.1,0.4,3.2c0,0.1,0,0.2,0,0.3c0.1,0.7,0.3,1.4,0.5,2.1c0.1,0.4,0.3,0.7,0.3,1.1
		c0.2,0.7,0.2,1.4-0.1,2c0,0,0,0.1,0,0.1c0,0.1,0,0.2,0.2,0.3c0.1,0,0.3,0,0.4,0c0.4,0,0.9,0,1.3,0c0.8,0.1,1.6,0.3,2.3,0.5
		c1.5,0.4,3.1,0.6,4.7,0.6c0.8,0,1.5-0.1,2.3-0.2c1-0.1,1.9-0.3,2.9-0.5c0.1,0,0.3-0.1,0.4-0.1c0.1,0,0.2,0,0.3,0.1
		c0.1,0.1,0.1,0.2,0.2,0.3c0.3,0.5,0.6,0.9,0.8,1.4c0.2,0.4,0.5,0.8,0.8,1.2c0.3,0.3,0.6,0.6,0.9,0.8c0.3,0.1,0.5,0.3,0.6,0.6
		c0.3,0.9,0.6,1.8,0.9,2.6c1.5,4.2,2.9,8.4,4.4,12.7c0.2,0.5,0.3,1,0.5,1.5C596.2,308,596.2,308.1,596.4,308.2z M566.7,308.1
		c0.2,0,0.3-0.1,0.4-0.2c0.7-0.4,1.3-0.8,2-1.2c0.7-0.4,1.5-0.8,2.4-1c1-0.2,1.9-0.4,2.9-0.4c1.1,0,2.1,0,3.2,0.1
		c0.8,0.1,1.6,0.2,2.4,0.4c0.7,0.1,1.4,0.3,2.1,0.4c0.4,0.1,0.8,0.1,1.2,0.2c0.8,0.2,1.6,0.4,2.4,0.7c1,0.3,2,0.5,3,0.6
		c0.9,0.1,1.7,0,2.6-0.1c0.4-0.1,0.5-0.1,0.4-0.6c-0.7-2.6-1.3-5.2-1.9-7.8c-0.9-3.7-1.9-7.5-2.8-11.2c0-0.1-0.1-0.2-0.1-0.3
		c-0.1-0.2-0.2-0.2-0.4-0.2c0,0-0.1,0-0.1,0c-1.2,0.4-2.4,0.5-3.6,0.6c-0.2,0-0.4,0-0.6,0c-0.5,0-1,0-1.5,0c-0.4,0-0.8,0-1.3-0.1
		c-0.4,0-0.9-0.1-1.3-0.1c-0.3,0-0.7-0.1-1-0.1c-0.9-0.1-1.7-0.2-2.5-0.5c-0.1,0-0.2-0.1-0.2-0.1c-0.8-0.1-1.6-0.1-2.4,0.1
		c-1.5,0.4-2.8,1.1-3.9,2.2c-0.2,0.2-0.4,0.4-0.7,0.5c-0.6,0.3-0.8,0.8-0.9,1.4c0,0.3,0,0.5,0,0.8c0,0.6,0.1,1.3,0.1,1.9
		c0,0.7,0,1.5,0,2.2c0,3.8,0,7.5,0,11.3c0,0.1,0,0.2,0,0.3C566.6,307.9,566.6,308,566.7,308.1z M540.8,312.1
		c0.1,0.2,0.1,0.2,0.2,0.4c0.7,0.6,1.4,1.3,2.1,1.9c2.4,1.9,5,3.5,7.8,4.8c2.3,1,4.7,1.8,7.1,2.4c1,0.2,2,0.4,3,0.6
		c0.5,0.1,0.9,0.1,1.4,0.2c0.4,0,0.8,0.1,1.2,0.1c0.7,0,1.3,0.1,2,0.1c0.9,0,1.9,0,2.8,0c0.9,0,1.8-0.1,2.6-0.2
		c0.9-0.1,1.7-0.3,2.6-0.4c1.5-0.3,3-0.6,4.5-1.1c2.7-0.8,5.3-2,7.7-3.4c2.1-1.2,4-2.6,5.8-4.2c0.3-0.3,0.6-0.6,1-0.9
		c0.1,0,0.1-0.1,0.1-0.2c-0.2-0.1-0.4,0-0.6,0c-7,0-14,0-20.9,0c-0.1,0-0.3,0-0.4,0c-0.1,0-0.1,0-0.2,0c0,0.1,0,0.1,0,0.1
		c0,0.1,0,0.1,0.1,0.1c0.1,0.1,0.2,0.2,0.3,0.3c0.1,0.1,0.2,0.2,0.2,0.3c0.1,0.2,0,0.3-0.2,0.4c-0.1,0-0.2,0-0.3,0
		c-2.9,0-5.8,0-8.7,0c-0.1,0-0.3,0-0.4,0c-0.2,0-0.3-0.2-0.2-0.4c0.1-0.1,0.2-0.2,0.3-0.3c0.1-0.1,0.2-0.2,0.3-0.3
		c0.1-0.1,0-0.2-0.1-0.2c-0.2,0-0.3,0-0.5,0c-6.7,0-13.5,0-20.2,0c-0.1,0-0.3,0-0.4,0C540.9,312.1,540.8,312.1,540.8,312.1z
		 M566.3,300.5C566.3,300.5,566.3,300.5,566.3,300.5c0-2.2,0-4.5,0-6.7c0-0.2,0-0.3,0-0.5c0.1-0.8,0.1-1.5,0-2.3
		c0-0.6-0.3-1.1-0.8-1.5c-0.3-0.2-0.6-0.5-1-0.7c-0.6-0.4-1.3-0.7-2-0.9c-0.8-0.2-1.6-0.3-2.4-0.3c-0.6,0-1.1,0-1.7,0.1
		c-0.5,0.1-0.9,0.1-1.4,0.1c-0.3,0-0.7,0.1-1,0.1c-0.5,0-1,0.1-1.5,0.1c-0.4,0-0.8,0-1.2,0c-1.1,0-2.3,0-3.4-0.2
		c-0.9-0.1-1.7-0.4-2.6-0.7c-0.1,0-0.2-0.1-0.2-0.1c-0.1,0-0.2,0-0.3,0.1c0,0.1-0.1,0.3-0.1,0.4c-0.3,1.2-0.5,2.4-0.7,3.6
		c-0.1,0.7-0.2,1.4-0.2,2c0,0.6,0,1.2,0.1,1.8c0.1,0.8,0.3,1.6,0.7,2.3c0.2,0.3,0.3,0.5,0.6,0.7c0.3,0.2,0.6,0.5,1,0.7
		c0.3,0.2,0.6,0.4,0.9,0.4c0.4,0.1,0.7,0.2,1.1,0.3c0.8,0.2,1.5,0.3,2.3,0.3c0.4,0,0.4-0.1,0.6,0.4c0.1,0.6,0.3,1.1,0.5,1.6
		c0.5,1.4,1.5,2.4,2.9,2.8c0.8,0.2,1.6,0.4,2.5,0.5c0.8,0.1,1.6,0.3,2.5,0.5c1.5,0.4,2.9,1,4.2,1.9c0.1,0.1,0.1,0.1,0.2,0.1
		c0.3,0.2,0.5,0,0.5-0.3c0,0,0,0,0,0C566.3,305.1,566.3,302.8,566.3,300.5z M567.4,310.7c0,0,0.1,0.1,0.2,0.1
		c0.5,0.1,0.8,0.4,1.2,0.6c0.1,0.1,0.2,0.1,0.3,0.2c0.1,0.1,0.2,0.1,0.4,0c0.1-0.1,0.2-0.1,0.3-0.2c0.2-0.1,0.4-0.3,0.7-0.4
		c0.6-0.4,1.2-0.7,1.8-0.8c1-0.2,2-0.3,3.1-0.3c0.7,0,1.5,0.1,2.2,0.1c0.7,0.1,1.3,0.2,2,0.4c0.3,0.1,0.6,0.2,0.8,0.5
		c0.3,0.3,0.7,0.4,1.2,0.5c0.5,0,1.1,0,1.6,0c0.3,0,0.5-0.1,0.7-0.1c0.7,0,1.3,0,2,0c2.3,0,4.7,0,7,0c0.6,0,1.2,0,1.8-0.1
		c0.2,0,0.3-0.1,0.4-0.3c0,0-0.1-0.1-0.1-0.1c-0.3-0.3-0.7-0.7-1-1c-0.2-0.2-0.4-0.4-0.6-0.6c-0.4-0.4-0.8-0.5-1.3-0.2
		c-0.6,0.3-1.2,0.4-1.8,0.4c-0.9,0.1-1.8,0.1-2.6-0.1c-0.6-0.1-1.2-0.2-1.8-0.4c-1.4-0.3-2.7-0.7-4.1-1c-0.7-0.2-1.4-0.3-2.1-0.4
		c-0.4,0-0.7-0.1-1.1-0.1c-0.6,0-1.1-0.1-1.7,0c-0.2,0-0.4,0.1-0.6,0.1c-0.7,0-1.5,0.1-2.2,0.2c-1.2,0.2-2.3,0.5-3.5,1
		c-1,0.4-1.9,0.9-2.7,1.6C567.6,310.4,567.4,310.5,567.4,310.7z M569.3,275.1c0,0.1,0,0.1,0,0.2c-0.2,1-0.5,1.9-1,2.8
		c-0.5,1-1,1.9-1.7,2.7c-0.6,0.8-1.2,1.5-1.7,2.3c-0.9,1.2-1.7,2.5-2.5,3.7c0,0.1-0.1,0.1-0.1,0.2c-0.1,0.1,0,0.3,0.2,0.3
		c0.2,0,0.3-0.1,0.4-0.2c0.3-0.5,0.7-0.9,1.1-1.3c0.6-0.7,1.3-1.3,1.9-2c1.3-1.4,2.3-3,3-4.8c0.5-1.2,0.8-2.4,1-3.7
		c0.1-0.4,0.1-0.9,0.2-1.3c0-0.1,0-0.3-0.1-0.4c-0.2,0-0.2,0.1-0.3,0.2c-0.6,0.6-1.2,1.1-1.8,1.7c-0.4,0.3-0.8,0.7-1.2,1
		c-0.5,0.3-0.5,0.3-0.8-0.1c-0.7-0.9-1.4-1.9-2-2.9c0,0-0.1-0.1,0-0.2c0.2,0.2,0.5,0.5,0.7,0.7c0.3,0.3,0.7,0.6,1,0.9
		c0.1,0.1,0.2,0.1,0.3,0.2c0.1,0.1,0.2,0,0.3,0c0.1,0,0.1-0.1,0.2-0.2c0.6-0.7,1.2-1.3,1.8-2c0.1-0.1,0.2-0.3,0.3-0.4
		c0,0,0-0.1,0-0.1c0,0-0.1,0-0.1,0c-0.2,0.1-0.4,0.3-0.6,0.4c-0.5,0.4-1,0.5-1.5,0.4c-0.4,0-0.8-0.1-1.2-0.1c-0.6-0.1-1.1-0.4-1.4-1
		c-0.1-0.2-0.2-0.4-0.3-0.6c-0.3-0.7-0.6-1.4-0.9-2.1c-0.1-0.2-0.2-0.3-0.3-0.5c0-0.1-0.1-0.1-0.2,0c-0.1,0.2,0,0.3,0,0.5
		c0.1,0.9,0.2,1.7,0.4,2.6c0.3,1.2,0.8,2.4,1.2,3.5c0,0.1,0.1,0.2,0.1,0.3c-0.2-0.4-0.5-0.7-0.6-1.1c-0.2-0.3-0.3-0.6-0.4-1
		c-0.1-0.1-0.1-0.3-0.3-0.3c-0.1,0.1-0.1,0.1-0.2,0.2c-0.1,0.1-0.1,0.3-0.2,0.4c-0.1,0.2-0.1,0.4,0.1,0.6c0.2,0.3,0.5,0.6,0.7,1
		c0.3,0.4,0.5,0.8,0.7,1.3c0.2,0.3,0.4,0.6,0.6,0.9c0.2,0.3,0.3,0.4,0.7,0.2c0.1,0,0.1,0,0.3-0.1c-0.1,0.1-0.1,0.1-0.2,0.2
		c-0.2,0.1-0.3,0.2-0.5,0.3c-0.3,0.2-0.4,0.2-0.6-0.1c-0.2-0.2-0.4-0.5-0.6-0.7c-0.3-0.3-0.5-0.6-0.7-1c-0.1-0.1-0.2-0.2-0.3-0.3
		c-0.2-0.2-0.3-0.1-0.4,0.1c-0.1,0.2-0.3,0.5-0.4,0.7c-0.2,0.3-0.2,0.4,0.1,0.7c0.5,0.6,1.1,1,1.7,1.5c0.4,0.3,0.8,0.3,1.2,0
		c0.1-0.1,0.2-0.1,0.3-0.2c0,0,0.1,0,0.2-0.1c0,0.1,0,0.1,0,0.1c-0.4,0.5-0.9,0.9-1.3,1.4c-0.3,0.2-0.3,0.2-0.6,0
		c-0.1,0-0.1-0.1-0.2-0.1c-0.2-0.2-0.5-0.4-0.7-0.5c-0.1-0.1-0.3-0.2-0.5-0.2c-0.2,0.2-0.2,0.4-0.2,0.6c-0.1,0.6-0.2,1.2-0.3,1.9
		c-0.1,1-0.2,1.9-0.1,2.9c0,0.2,0,0.3,0.1,0.5c0.2,0,0.3-0.2,0.4-0.3c1.2-1.2,2.4-2.5,3.4-3.9c1.3-1.6,2.6-3.3,3.8-5.1
		C568.8,275.8,569.1,275.4,569.3,275.1z M540.8,307.3c-0.2,0-0.3,0.1-0.4,0.2c-0.3,0.4-0.6,0.8-1,1.2c0,0-0.1,0.1-0.1,0.1
		c-0.1,0.1,0,0.2,0.1,0.3c0.1,0,0.1,0,0.2,0c0.3,0.1,0.7,0.1,1,0.2c0.6,0.1,1.2,0.2,1.8,0.3c0.6,0.1,1.3,0.2,1.9,0.3
		c0.6,0.1,1.2,0.1,1.8,0.2c0.7,0.1,1.4,0.1,2,0.1c0.9,0.1,1.8,0,2.6-0.1c0.8-0.1,1.6-0.2,2.4-0.5c0.3-0.1,0.6-0.2,1-0.3
		c0.6-0.2,1.2-0.4,1.9-0.5c0.8-0.2,1.6-0.3,2.4-0.4c0.8-0.1,1.6-0.1,2.4,0.1c1.2,0.2,2.3,0.6,3.3,1.2c0.3,0.2,0.6,0.4,0.8,0.5
		c0.2,0.1,0.4,0.2,0.6,0.3c0.5,0.1,0.6-0.1,0.6-0.6c-0.2-1-0.7-1.9-1.6-2.5c-0.6-0.4-1.2-0.7-1.9-0.9c-1-0.3-2.1-0.4-3.2-0.4
		c-0.8,0-1.5,0-2.3,0.1c0,0-0.1,0-0.1,0c-0.4,0-0.9,0.1-1.3,0.1c-0.6,0.1-1.1,0.1-1.7,0.2c-0.6,0.1-1.2,0.3-1.9,0.5
		c-0.8,0.3-1.7,0.6-2.5,0.8c-1,0.3-2.1,0.5-3.2,0.5c-0.3,0-0.6-0.1-0.8-0.1c-0.5,0-1.1-0.1-1.6-0.2c-1-0.2-2-0.5-3-0.7
		C541,307.3,540.9,307.3,540.8,307.3z M595.3,310.6c0.3-0.1,0.4-0.3,0.5-0.5c0.4-0.4,0.3-0.3,0.1-0.8c-0.5-1.3-0.9-2.7-1.4-4
		c-1.2-3.5-2.3-7-3.5-10.5c-0.3-0.9-0.6-1.9-0.9-2.8c-0.2-0.7-0.6-1.3-1.1-1.8c-0.4-0.4-0.8-0.8-1.2-1.2c0,0-0.1-0.1-0.1-0.1
		c0,0-0.1,0-0.1,0c0,0-0.1,0.1-0.1,0.1c0,0.1,0,0.1,0,0.2c0.3,1.2,0.6,2.4,0.9,3.5c0.7,2.7,1.3,5.4,2,8c0.5,1.9,1,3.8,1.3,5.7
		c0.1,0.7,0.4,1.3,1,1.8c0.7,0.7,1.5,1.3,2.2,2C595,310.4,595.1,310.5,595.3,310.6z M557,283.4c0,0.1,0,0.2,0,0.3
		c0.2,0.7,0.3,1.4,0.5,2c0.1,0.4,0.2,0.7,0.2,1.1c0.1,0.4,0.2,0.4,0.6,0.4c0.3,0,0.6-0.1,1-0.1c0.3,0,0.4-0.1,0.4-0.4
		c0-0.2,0-0.3,0.1-0.5c0.1-0.7,0.3-1.4,0.4-2.1c0.2-0.9,0.3-1.7,0.3-2.6c0-0.5,0-0.9,0-1.4c0-0.7,0-1.5,0-2.2c0-0.4,0.1-0.8,0.2-1.2
		c0.2-0.4,0.3-0.9,0.4-1.3c0-0.2,0.1-0.3,0-0.5c-0.1-0.2,0-0.3,0.1-0.5c0.1-0.2,0.2-0.4,0.3-0.6c0.2-0.6,0.4-1.2,0.5-1.8
		c0.1-0.4,0.1-0.7,0-1.1c-0.3-0.8-0.5-1.7-0.6-2.6c0-0.1,0-0.3-0.2-0.4c-0.1,0-0.1,0-0.2,0.1c-0.1,0.1-0.1,0.2-0.2,0.3
		c-0.3,0.5-0.5,1-0.6,1.5c-0.2,0.8-0.5,1.6-0.9,2.4c-0.2,0.4-0.3,0.8-0.3,1.2c0,0.1,0,0.2,0,0.3c-0.1,0.7-0.3,1.3-0.6,1.9
		c-0.4,0.7-0.8,1.4-1.2,2.1c-0.3,0.5-0.5,1-0.5,1.7c0,0.4,0,0.9,0,1.3c0,0.4,0,0.9-0.1,1.3c0,0.1,0,0.1,0,0.2c0.2,0.1,0.3,0.1,0.5,0
		c0.3,0,0.6-0.1,0.9-0.1c0.2,0,0.4-0.1,0.5-0.1c0.2,0,0.3-0.2,0.3-0.4c0-0.1,0-0.2,0-0.2c0.2,0.1,0.3,0.2,0.5,0.5
		c0.2,0.4,0.3,0.8,0.2,1.3c-0.1,0-0.2-0.1-0.2-0.1c-0.3-0.3-0.6-0.3-1-0.2c-0.4,0.2-0.7,0.3-1.1,0.5
		C557.1,283.3,557.1,283.4,557,283.4z M555.3,305c-0.2-0.1-0.3-0.2-0.4-0.2c-0.7-0.1-1.4-0.2-2-0.3c-1.2-0.3-2.3-0.7-3.3-1.3
		c-1.5-0.9-2.6-2-3.3-3.6c-0.6-1.3-0.8-2.6-0.9-4c0-0.3,0-0.6,0-1c0-0.1,0.1-0.3-0.1-0.4c-0.2,0-0.2,0.2-0.2,0.3
		c-0.6,2.3-1.2,4.6-1.7,6.9c-0.1,0.5-0.3,1.1-0.4,1.6c-0.1,0.4-0.1,0.8,0.2,1.1c0.2,0.3,0.4,0.6,0.7,0.8c0.4,0.3,0.8,0.5,1.3,0.7
		c0.9,0.3,1.8,0.5,2.7,0.5c0.7,0,1.3,0,2-0.1c0.6-0.1,1.2-0.1,1.8-0.2c0.7-0.1,1.4-0.2,2-0.4c0.5-0.1,1.1-0.3,1.6-0.4
		C555.2,305.1,555.2,305,555.3,305z M592,320.6c-0.1-0.1-0.2-0.2-0.3-0.3c-0.6-0.4-1.2-0.6-1.8-0.4c-0.9,0.3-1.5,0.8-1.7,1.7
		c-0.1,0.6-0.1,1.2,0.1,1.7c0.2,0.6,0.7,1.1,1.2,1.5c0.5,0.5,1.2,0.6,1.8,0.4c1.1-0.2,1.8-0.9,2.4-1.7c0.1-0.1,0.1-0.2,0-0.4
		c-0.1-0.2-0.3-0.5-0.4-0.7c-0.1-0.1-0.2-0.1-0.3,0c-0.1,0.1-0.1,0.2-0.2,0.4c-0.3,0.5-0.6,0.9-1.1,1.1c-0.3,0.1-0.7,0.2-1,0.1
		c-0.4-0.1-0.6-0.3-0.8-0.7c0.2-0.2,2.6-1.7,2.9-1.9c0.1,0.1,0.2,0.2,0.3,0.2c0.2,0.2,0.4,0.3,0.6,0.5c0.4,0.2,0.9,0.4,1.4,0.3
		c0.3-0.1,0.6-0.2,0.9-0.3c0.5-0.3,0.9-0.7,1.2-1.2c0.1-0.2,0.2-0.3,0.1-0.5c-0.1-0.3-0.3-0.5-0.5-0.7c-0.1-0.1-0.3,0-0.3,0.1
		c0,0.1-0.1,0.2-0.1,0.3c-0.1,0.3-0.2,0.5-0.4,0.8c-0.5,0.5-1.1,0.6-1.7,0.2c-0.6-0.4-0.9-0.9-1.1-1.5c-0.1-0.5,0-0.9,0.4-1.2
		c0.2-0.1,0.4-0.3,0.6-0.3c0.2-0.1,0.4-0.1,0.6-0.1c0.3,0,0.3,0,0.6-0.3c0.1,0.1,0.2,0.2,0.2,0.3c0.6,0.7,1.3,1.4,1.9,2
		c0.1,0.1,0.2,0.2,0.3,0.3c0.1,0.1,0.3,0.1,0.4,0c0.2-0.1,0.3-0.3,0.4-0.4c0.1-0.1,0.1-0.2,0-0.3c-0.1-0.1-0.1-0.1-0.2-0.2
		c-0.3-0.3-0.5-0.5-0.8-0.8c-0.4-0.5-0.9-0.9-1.3-1.4c-0.1-0.1-0.2-0.2-0.2-0.4c0-0.4,0.2-0.8,0.4-1.1c0.3-0.3,0.6-0.3,0.9-0.1
		c0.2,0.1,0.4,0.3,0.5,0.5c0.6,0.6,1.1,1.1,1.7,1.7c0.1,0.1,0.2,0.2,0.3,0.3c0.1,0.1,0.3,0.1,0.4,0c0.2-0.1,0.3-0.3,0.4-0.4
		c0.1-0.1,0.1-0.2,0-0.3c-0.1-0.1-0.1-0.1-0.2-0.2c-0.2-0.2-0.4-0.5-0.7-0.7c-0.5-0.5-0.9-1-1.4-1.5c-0.2-0.2-0.5-0.4-0.8-0.6
		c-0.6-0.3-1.2-0.2-1.7,0.2c-0.3,0.3-0.6,0.6-0.7,1c0,0.1-0.1,0.3-0.2,0.4c-0.1-0.1-0.2-0.2-0.3-0.3c-0.3-0.3-0.6-0.6-0.9-0.9
		c-0.4-0.4-0.5-0.4-0.9,0c-0.4,0.4-0.4,0.4,0,0.8c0.3,0.3,0.7,0.7,1,1c0.1,0.1,0.1,0.1,0.1,0.2c-0.1,0-0.2,0-0.2,0.1
		c-0.3,0.1-0.5,0.2-0.8,0.3c-0.9,0.5-1.7,1.5-1.3,2.9C591.9,320.4,591.9,320.4,592,320.6z M581.1,325.9c-0.1-0.1-0.1-0.2-0.1-0.2
		c-0.2-0.3-0.3-0.5-0.5-0.8c-0.7-0.9-1.7-1.3-2.9-1.2c-0.8,0.2-1.6,0.4-2.4,0.6c-0.3,0.1-0.4,0.3-0.3,0.6c0.1,0.2,0.1,0.4,0.2,0.6
		c0.5,1.7,1,3.5,1.4,5.2c0,0.1,0.1,0.2,0.1,0.3c0.1,0.2,0.2,0.2,0.4,0.2c0.1,0,0.2,0,0.2-0.1c0.4-0.1,0.8-0.2,1.2-0.3
		c0.5-0.1,0.9-0.3,1.3-0.5c1-0.5,1.5-1.3,1.6-2.5c0-0.1,0-0.2,0-0.3c0-0.1,0-0.2,0.1-0.3c0,0.1,0.1,0.1,0.1,0.2
		c0.2,0.3,0.4,0.6,0.6,0.9c0.5,0.4,1,0.7,1.6,0.7c0.5,0,0.9-0.1,1.3-0.3c0.5-0.2,0.9-0.5,1.3-0.9c0.1-0.1,0.2-0.2,0.1-0.4
		c-0.1-0.3-0.2-0.5-0.3-0.8c-0.1-0.1-0.2-0.1-0.3,0c-0.1,0.1-0.2,0.2-0.2,0.3c-0.3,0.4-0.7,0.7-1.2,0.9c-0.3,0.1-0.6,0.1-0.9,0.1
		c-0.2,0-0.4-0.2-0.6-0.3c-0.2-0.2-0.3-0.3-0.3-0.6c0.1-0.1,0.3-0.1,0.4-0.2c0.7-0.3,1.4-0.6,2.1-0.9c0.1-0.1,0.3-0.1,0.4-0.2
		c0.2-0.1,0.2-0.2,0.2-0.4c-0.2-0.5-0.4-1-0.7-1.3c-0.3-0.3-0.7-0.5-1.1-0.6c-0.3-0.1-0.6,0-0.9,0c-1.1,0.2-1.8,1.2-1.9,2
		C581.2,325.6,581.1,325.7,581.1,325.9z M544.6,289.6c-0.1,0.1-0.2,0.1-0.2,0.1c-0.3,0.2-0.5,0.4-0.8,0.6c-0.3,0.2-0.5,0.6-0.7,0.9
		c-0.3,0.6-0.5,1.2-0.7,1.8c-0.5,1.9-1,3.7-1.6,5.5c-1.1,3.3-2.2,6.7-3.2,10.1c-0.1,0.3-0.2,0.6-0.2,0.8c0,0.1,0,0.2,0.1,0.3
		c0.2,0,0.3-0.1,0.4-0.2c0.5-0.4,1-0.8,1.4-1.2c0.3-0.2,0.5-0.4,0.7-0.7c0.7-0.8,1-1.7,1.2-2.6c0.2-1.3,0.5-2.5,0.8-3.8
		c0.7-2.6,1.3-5.2,2-7.8c0.3-1.1,0.6-2.3,0.8-3.5C544.6,290.1,544.7,289.9,544.6,289.6z M559.2,305.6c0-0.1-0.1-0.2-0.1-0.2
		c-0.5-0.1-1-0.2-1.5-0.3c-1-0.1-2,0.1-3,0.3c-1,0.2-2.1,0.5-3.1,0.7c-0.9,0.2-1.8,0.3-2.8,0.4c-0.6,0-1.1,0-1.7,0
		c-0.7-0.1-1.4-0.2-2-0.4c-0.4-0.1-0.8-0.3-1.2-0.5c-0.4-0.3-0.8-0.7-1.1-1c-0.1-0.1-0.2-0.3-0.3-0.4c-0.2-0.3-0.3-0.7-0.2-1.1
		c0.1-0.4,0.2-0.8,0.3-1.2c0.6-2.4,1.2-4.8,1.8-7.3c0.3-1.4,0.7-2.7,1-4.1c0.2-0.6,0.3-1.3,0.5-1.9c0.1-0.2,0.1-0.5,0-0.7
		c0-0.1-0.1-0.2-0.2-0.2c-0.1,0-0.2,0-0.3,0.1c-0.1,0.1-0.1,0.2-0.1,0.3c-0.1,0.2-0.1,0.4-0.2,0.6c-1.4,5.7-2.8,11.4-4.3,17.1
		c-0.1,0.2-0.1,0.4-0.1,0.6c-0.1,0.3,0,0.4,0.3,0.5c0.1,0,0.2,0,0.2,0.1c0.5,0.1,0.9,0.3,1.4,0.4c1.2,0.4,2.5,0.6,3.8,0.6
		c0.5,0,1,0,1.5-0.1c0.9-0.1,1.9-0.3,2.8-0.6c0.6-0.2,1.2-0.4,1.8-0.5c1-0.3,2-0.5,3-0.6c0.5-0.1,1-0.1,1.5-0.2c0.5,0,1-0.1,1.5-0.1
		C558.8,305.8,559,305.7,559.2,305.6z M537.6,310.5c0.1,0.2,0.3,0.4,0.4,0.5c0.1,0.1,0.3,0.2,0.5,0.2c0.1,0,0.2,0,0.3,0
		c2.2,0,4.4,0,6.5,0.1c2.3,0.1,4.6,0,6.9,0.1c0.6,0,1.1,0,1.7,0c0.5,0,1-0.1,1.4-0.4c0.2-0.1,0.5-0.2,0.7-0.3
		c0.6-0.1,1.1-0.2,1.7-0.3c1.1-0.1,2.1-0.1,3.2,0.1c0.8,0.2,1.6,0.4,2.3,0.9c0,0,0.1,0.1,0.1,0.1c0.1,0.1,0.2,0.1,0.4,0
		c0.4-0.3,0.9-0.5,1.3-0.8c0.1,0,0.1-0.1,0.2-0.2c-0.1-0.1-0.2-0.1-0.3-0.2c-0.7-0.4-1.5-0.7-2.3-1c-1-0.3-2.1-0.6-3.2-0.5
		c-0.2,0-0.4,0-0.7,0c-0.5,0-0.9,0.1-1.4,0.1c-0.8,0.1-1.5,0.4-2.2,0.6c-0.6,0.2-1.2,0.3-1.9,0.5c-0.8,0.2-1.5,0.3-2.3,0.4
		c-0.7,0.1-1.5,0.1-2.2,0.1c-0.6,0-1.1,0-1.7-0.1c-0.5,0-1,0-1.5-0.1c-0.6-0.1-1.2-0.2-1.7-0.2c-0.7-0.1-1.5-0.2-2.2-0.4
		c-0.7-0.2-1.3-0.3-2-0.5c-0.4-0.1-0.8,0-1.2,0.3c-0.2,0.2-0.5,0.4-0.7,0.6C537.7,310.3,537.6,310.4,537.6,310.5z M533.8,315.1
		c0.2,0.1,0.3,0.2,0.4,0.4c0.5,0.5,0.9,1,1.4,1.4c0.3,0.3,0.4,0.3,0.7,0c0.1-0.1,0.2-0.2,0.4-0.2c0.2,0.1,0.5,0.2,0.8,0.3
		c0.3,0.1,0.6,0.3,0.8,0.6c0.1,0.1,0.1,0.2,0.2,0.3c0.1,0.1,0.1,0.3,0,0.4c0,0.1-0.1,0.2-0.3,0.3c-0.3-0.2-0.6-0.4-0.9-0.6
		c-0.3-0.2-0.7-0.4-1-0.4c-0.4-0.1-0.8-0.1-1.2,0.2c-0.3,0.2-0.6,0.5-0.8,0.8c-0.4,0.8-0.2,1.7,0.5,2.2c0.3,0.3,0.7,0.4,1.1,0.5
		c0.1,0,0.1,0,0.2,0c0,0.4,0,0.4,0.3,0.6c0,0,0.1,0.1,0.1,0.1c0.3,0.3,0.5,0.3,0.8-0.1c0.4-0.5,0.9-1.1,1.3-1.6
		c0.3-0.4,0.6-0.7,0.9-1.1c0.4-0.6,0.4-1.3-0.1-1.9c-0.5-0.6-1.1-1.1-1.8-1.4c-0.2-0.1-0.4-0.1-0.6,0.1c-0.1,0.1-0.2,0.3-0.3,0.3
		c-0.3-0.2-1.1-0.9-1.8-1.7c-0.1-0.1-0.1-0.2-0.2-0.2c0.1-0.2,0.3-0.4,0.5-0.6c0.2-0.2,0.3-0.4,0.6-0.5c0.1,0.1,0.2,0.2,0.3,0.3
		c0.5,0.5,1,1,1.6,1.6c0.3,0.3,0.4,0.3,0.6,0c0,0,0,0,0.1-0.1c0.4-0.4,0.4-0.4,0-0.8c-0.7-0.8-1.5-1.5-2.2-2.3
		c-0.1-0.1-0.3-0.3-0.5-0.4c-0.1,0.1-0.2,0.1-0.2,0.2c-1.5,1.5-2.9,2.9-4.4,4.4c-0.1,0.1-0.1,0.1-0.2,0.2c-0.1,0.1-0.1,0.2,0,0.3
		c0.1,0.1,0.2,0.2,0.3,0.3c0.4,0.4,0.4,0.4,0.8,0c0.5-0.5,1-1.1,1.6-1.6C533.5,315.4,533.6,315.3,533.8,315.1z M567,310.3
		c0.2,0,0.3-0.1,0.4-0.2c0.6-0.4,1.2-0.8,1.8-1.2c2.1-1.2,4.3-1.9,6.7-1.9c1.2,0,2.3,0,3.5,0.2c1,0.2,2.1,0.4,3.1,0.6
		c1.5,0.3,2.9,0.7,4.4,1c0.5,0.1,1.1,0.2,1.6,0.2c0.5,0,1.1,0,1.6,0c0.6,0,1.2-0.1,1.8-0.3c0.1,0,0.2-0.1,0.3-0.1
		c0.1-0.1,0.1-0.2,0.1-0.3c-0.1-0.3-0.3-0.5-0.6-0.4c-0.1,0-0.2,0-0.4,0.1c-0.4,0.1-0.7,0.2-1.1,0.2c-0.9,0.1-1.8,0-2.7-0.2
		c-0.7-0.1-1.4-0.3-2.1-0.4c-1.6-0.4-3.2-0.8-4.8-1.2c-0.7-0.2-1.4-0.3-2.1-0.4c-0.5-0.1-1-0.1-1.5-0.2c-0.6-0.1-1.2-0.1-1.8-0.1
		c-0.7,0-1.3,0-2,0.1c-1,0.2-2,0.4-3,0.8c-0.8,0.3-1.6,0.7-2.3,1.2c-0.3,0.3-0.7,0.6-0.9,0.9c-0.2,0.2-0.3,0.5-0.2,0.8
		c0,0.1,0,0.2,0.1,0.3C566.9,310,566.9,310.1,567,310.3z M549.3,324.5c0.1,0.2,0,0.3-0.1,0.5c-0.2,0.6-0.5,1.3-0.7,1.9
		c-0.1,0.2-0.2,0.4-0.2,0.7c-0.1,0.6,0.1,1.1,0.6,1.5c0.3,0.2,0.7,0.3,1.1,0.4c0.4,0.1,0.4,0,0.6-0.4c0,0,0-0.1,0-0.1
		c0.1-0.4,0.1-0.4-0.3-0.5c-0.2,0-0.4-0.1-0.6-0.2c-0.3-0.1-0.4-0.3-0.3-0.6c0-0.1,0.1-0.2,0.1-0.3c0.3-0.7,0.5-1.4,0.8-2.1
		c0-0.1,0.1-0.2,0.2-0.3c0.5,0.1,1,0.5,1.5,0.4c0,0.1,0,0.1,0,0.1c0,0.2,0.1,0.3,0.3,0.3c0.1,0,0.2,0,0.3,0c0.3,0,0.6,0,0.9,0.1
		c0.2,0.1,0.4,0.2,0.7,0.3c0.2,0.1,0.3,0.4,0.3,0.7c0,0.1-0.1,0.2-0.2,0.1c-0.2,0-0.3-0.1-0.5-0.1c-0.4-0.1-0.8-0.2-1.3-0.1
		c-1,0-1.8,0.7-1.8,1.9c0,0.7,0.4,1.2,1.1,1.5c0.4,0.2,0.9,0.2,1.3,0.1c0.1,0,0.2,0,0.3,0c0.3,0.4,0.3,0.4,0.7,0.5
		c0.1,0,0.1,0,0.2,0.1c0.1,0,0.3,0,0.3-0.1c0.1-0.2,0.1-0.3,0.2-0.5c0.2-0.7,0.4-1.4,0.6-2c0.1-0.3,0.2-0.7,0.3-1
		c0.2-0.6,0-1.2-0.5-1.6c-0.2-0.2-0.4-0.3-0.7-0.4c-0.7-0.3-1.4-0.4-2.2-0.4c-0.1-0.2-0.3-0.3-0.5-0.3c-0.2-0.1-0.4-0.1-0.6-0.2
		c-0.3-0.1-0.4-0.2-0.2-0.5c0-0.1,0.1-0.1,0.1-0.2c0.1-0.2,0.1-0.3,0.2-0.5c0.1-0.2,0-0.4-0.2-0.5c-0.2-0.1-0.4-0.1-0.5-0.2
		c-0.1,0-0.2,0-0.3,0.1c-0.1,0.1-0.1,0.2-0.1,0.3c-0.1,0.2-0.2,0.4-0.3,0.7c-0.1,0.1-0.1,0.2-0.3,0.2c0,0-0.1,0-0.1,0
		c-0.1,0-0.2,0-0.3,0.1c0,0.1-0.1,0.1-0.1,0.2C548.9,324.2,548.9,324.2,549.3,324.5C549.3,324.5,549.3,324.5,549.3,324.5z
		 M543.6,320.7c-0.1-0.1-0.1-0.2-0.2-0.3c-0.3-0.5-0.7-0.9-1.3-1.2c-0.4-0.2-0.8-0.3-1.2-0.3c-0.5,0-0.9,0.2-1.3,0.5
		c-0.8,0.6-1.2,1.3-1.5,2.2c-0.1,0.4-0.1,0.8,0,1.2c0.2,0.5,0.4,0.9,0.8,1.2c0.5,0.4,1,0.6,1.6,0.7c0.1,0,0.3,0,0.4-0.1
		c0.2-0.2,0.4-0.4,0.5-0.7c0.1-0.1,0-0.3-0.2-0.3c-0.2,0-0.3,0-0.5,0c-0.5,0-0.9-0.2-1.2-0.5c-0.3-0.3-0.4-0.6-0.3-1
		c0.1-0.3,0.2-0.5,0.3-0.7c0.2-0.4,0.5-0.7,0.9-1c0.4-0.3,0.8-0.3,1.3,0c0.2,0.1,0.4,0.3,0.5,0.5c0.1,0.2,0.2,0.4,0.3,0.6
		c0.1,0.2,0.2,0.2,0.5,0.2c-0.1,0.2-0.2,0.3-0.3,0.5c-0.3,0.5-0.5,1-0.8,1.4c-0.1,0.3-0.3,0.6-0.3,0.9c-0.2,0.8,0.3,1.6,1.1,1.9
		c0.3,0.1,0.5,0.1,0.8,0.2c0.1,0,0.2,0,0.3,0c0.2,0.4,0.2,0.4,0.6,0.6c0,0,0.1,0.1,0.2,0.1c0.2,0.1,0.3,0.1,0.4-0.1
		c0.1-0.1,0.1-0.2,0.2-0.4c0.3-0.6,0.7-1.2,1-1.8c0.3-0.6,0.6-1.2,1-1.8c0.3-0.6,0-0.8-0.5-1c-0.2-0.1-0.3,0-0.4,0.2
		c-0.1,0.1-0.2,0.3-0.2,0.4c-0.4,0.8-0.9,1.6-1.3,2.4c-0.1,0.3-0.3,0.4-0.6,0.4c-0.3,0-0.7,0-1-0.2c-0.3-0.2-0.4-0.4-0.3-0.8
		c0.1-0.2,0.2-0.4,0.3-0.6c0.4-0.8,0.8-1.5,1.3-2.3c0.1-0.1,0.1-0.2,0.2-0.3c0-0.1,0-0.2,0-0.3C544.3,320.7,544,320.5,543.6,320.7z
		 M544.7,240.4C544.7,240.4,544.7,240.4,544.7,240.4c0.1,0,0.2,0,0.3,0.1c1.3,1,2.6,1.9,3.8,2.9c0.1,0.1,0.3,0.2,0.5,0.3
		c0.1,0,0.2,0.1,0.3,0c0.2-0.1,0.5-0.2,0.7-0.3c0.1-0.1,0.2-0.2,0.1-0.4c0-0.1-0.1-0.2-0.1-0.3c-0.9-1.8-1.7-3.6-2.6-5.4
		c0-0.1-0.1-0.2-0.1-0.2c-0.1-0.1-0.2-0.1-0.3-0.1c-0.2,0.1-0.4,0.2-0.6,0.3c-0.1,0.1-0.1,0.2-0.1,0.3c0.1,0.2,0.1,0.3,0.2,0.5
		c0.5,1.1,1.1,2.2,1.6,3.3c0,0.1,0.1,0.1,0,0.2c-0.1-0.1-0.2-0.1-0.2-0.2c-1.1-0.9-2.2-1.7-3.3-2.6c-0.1-0.1-0.3-0.2-0.4-0.3
		c-0.1-0.1-0.3-0.1-0.4-0.1c-0.3,0.1-0.6,0.3-0.9,0.4c-0.2,0.1-0.2,0.2-0.1,0.4c0,0.1,0.1,0.2,0.1,0.3c0.9,1.8,1.7,3.6,2.6,5.4
		c0,0.1,0.1,0.2,0.2,0.2c0.1,0.1,0.2,0.1,0.3,0.1c0.2-0.1,0.4-0.2,0.6-0.3c0.1-0.1,0.2-0.2,0.1-0.3c-0.1-0.1-0.1-0.3-0.2-0.4
		c-0.4-0.8-0.8-1.7-1.2-2.5C545.1,241.5,544.9,241,544.7,240.4z M609.9,264.8c0.1-0.1,0.2-0.2,0.1-0.4c-0.1-0.2-0.1-0.4-0.2-0.6
		c-0.1-0.2-0.2-0.2-0.3-0.1c-0.1,0-0.3,0.1-0.4,0.1c-0.9,0.4-1.9,0.7-2.8,1.1c-0.4,0.2-0.8,0.3-1.2,0.5c-0.3,0.1-0.4,0.3-0.3,0.6
		c0,0,0,0.1,0,0.1c0.2,0.4,0.2,0.5,0.8,0.3c0.6-0.2,1.1-0.4,1.7-0.6c0.4-0.1,0.8-0.3,1.1-0.4c0.2-0.1,0.3-0.1,0.4,0
		c0.2,0.1,0.4,0.3,0.6,0.5c0.2,0.3,0.2,0.7-0.2,1c-0.2,0.1-0.4,0.2-0.6,0.3c-0.7,0.3-1.5,0.6-2.2,0.8c-0.2,0.1-0.3,0.1-0.5,0.2
		c-0.2,0.1-0.3,0.3-0.2,0.5c0.1,0.2,0.1,0.3,0.2,0.5c0.1,0.1,0.2,0.1,0.3,0.1c0.1,0,0.2-0.1,0.2-0.1c0.7-0.3,1.4-0.5,2.1-0.8
		c0.3-0.1,0.6-0.2,0.9-0.3c0.1,0,0.2,0,0.3,0c0.3,0.1,0.6,0.3,0.7,0.6c0.2,0.4,0.1,0.7-0.2,0.9c-0.2,0.1-0.3,0.2-0.5,0.2
		c-0.8,0.3-1.6,0.6-2.5,0.9c-0.1,0-0.2,0.1-0.3,0.1c-0.2,0.1-0.3,0.2-0.2,0.4c0,0.1,0.1,0.2,0.1,0.3c0.2,0.5,0.2,0.5,0.7,0.3
		c1-0.4,1.9-0.7,2.9-1.1c0.2-0.1,0.3-0.1,0.5-0.2c0.2-0.1,0.5-0.3,0.6-0.5c0.3-0.4,0.3-0.8,0.2-1.3c-0.1-0.5-0.4-0.8-0.8-1.1
		c-0.1-0.1-0.3-0.1-0.4-0.3c0-0.1,0.1-0.2,0.1-0.4c0.2-0.5,0.1-1-0.2-1.5c-0.1-0.1-0.2-0.3-0.4-0.4
		C610.1,264.9,610,264.8,609.9,264.8z M554.9,280.9c0-0.1,0.1-0.1,0.1-0.2c0.1-0.1,0.2-0.3,0.3-0.4c0.3-0.4,0.6-0.8,0.8-1.3
		c0.4-0.8,0.7-1.6,1.1-2.4c0.4-0.8,0.7-1.6,0.9-2.5c0.1-0.6,0.3-1.2,0.2-1.8c-0.1-0.4,0-0.7,0.2-1c0.2-0.3,0.4-0.6,0.6-0.9
		c0.3-0.4,0.5-0.8,0.6-1.3c0-0.2,0.1-0.5,0.1-0.7c0.1-0.8,0.2-1.5,0.5-2.3c0.2-0.8,0.6-1.5,1.1-2.1c0.1-0.1,0.1-0.2,0.2-0.3
		c0.2-0.3,0.4-0.5,0.5-0.8c0.2-0.5,0.2-0.9,0-1.4c-0.1-0.2-0.2-0.3-0.4-0.2c-0.4,0.2-0.8,0.4-1.1,0.6c-0.4,0.3-0.7,0.6-0.8,1.1
		c-0.1,0.3-0.1,0.6-0.2,0.9c0,0.6,0,1.3-0.1,1.9c0,0.3,0,0.7-0.1,1c-0.3,1.2-0.6,2.4-1,3.5c-0.1,0.4-0.3,0.8-0.6,1.1
		c-0.2,0.2-0.3,0.5-0.4,0.8c-0.2,0.5-0.3,1-0.4,1.5c-0.1,0.5-0.2,1.1-0.3,1.6c-0.2,1.1-0.6,2.2-1.2,3.2c-0.2,0.3-0.3,0.5-0.5,0.8
		c-0.1,0.2-0.3,0.5-0.3,0.7c0,0.2,0,0.3,0.1,0.4C554.7,280.8,554.7,280.9,554.9,280.9z M546,297.7c0,0.2,0,0.3,0.1,0.4
		c0.5,1.8,1.5,3.3,3.1,4.3c1.1,0.7,2.3,1.2,3.5,1.5c0.5,0.1,1,0.2,1.6,0.3c0.1,0,0.1,0,0.2,0c0,0,0.1-0.1,0.1-0.1
		c-0.1-0.1-0.2-0.2-0.2-0.2c-0.6-0.4-1-1-1.2-1.7c-0.2-0.5-0.3-0.9-0.4-1.4c0-0.1,0-0.2-0.1-0.3c0-0.2-0.1-0.2-0.3-0.3
		c-0.2,0-0.3,0-0.5,0c-0.7,0-1.4-0.1-2-0.3c-1.4-0.3-2.5-1-3.5-2.1c-0.1-0.1-0.1-0.1-0.2-0.2C546.2,297.7,546.1,297.7,546,297.7z
		 M538.3,244.2c-0.3,0.1-0.5,0.2-0.7,0.3c-0.8,0.4-1.2,1.1-1.2,2c0,1.3,1,2.7,2.3,3.2c0.8,0.3,1.6,0,2.1-0.5
		c0.2-0.2,0.3-0.4,0.4-0.6c0.1-0.1,0.1-0.2,0.1-0.3c0.3,0.1,0.4,0,0.6-0.1c0.1-0.1,0.2-0.2,0.3-0.2c0.1-0.1,0.1-0.2,0-0.4
		c-0.1-0.1-0.1-0.2-0.2-0.2c-0.1-0.2-2.3-2.6-3.5-4.6c-0.1-0.2-0.5-0.8-0.8-0.8c-0.2,0-0.4,0.2-0.6,0.5c0,0,0,0,0,0.1
		c0,0.1,0,0.1,0,0.2c0.1,0.1,0.2,0.3,0.3,0.4C537.8,243.5,538,243.8,538.3,244.2z M524.9,286.5c0-0.4-0.1-0.8-0.2-1.2
		c-0.2-0.6-0.7-1.1-1.3-1.3c-0.4-0.2-0.9-0.2-1.3-0.2c-0.1,0-0.2,0-0.4,0c-0.5,0-1,0.1-1.5,0.1c-0.7,0.1-1.5,0.2-2.2,0.2
		c-0.5,0.1-0.6,0.2-0.5,0.7c0.1,0.5,0.2,0.6,0.7,0.5c0.4-0.1,0.9-0.1,1.3-0.1c0.5,0,0.9-0.1,1.4-0.1c0.3,0,0.7,0,1-0.1
		c0.3-0.1,0.7,0,1,0c0.4,0.1,0.6,0.3,0.8,0.6c0.1,0.3,0.2,0.6,0.2,1c0,0.4-0.2,0.7-0.6,0.9c-0.3,0.1-0.5,0.2-0.8,0.2
		c-0.4,0-0.9,0.1-1.3,0.1c-0.4,0-0.9,0.1-1.3,0.1c-0.4,0-0.9,0.1-1.3,0.1c-0.1,0-0.3,0-0.4,0.1c-0.2,0-0.2,0.1-0.2,0.2
		c0,0.2,0,0.5,0.1,0.7c0,0.1,0.1,0.2,0.2,0.2c0.1,0,0.1,0,0.2,0c0.6,0,1.2-0.1,1.7-0.2c0.8-0.1,1.6-0.1,2.4-0.2
		c0.4,0,0.8-0.1,1.2-0.3c0.5-0.3,0.9-0.7,1.1-1.2C524.9,287.1,525,286.8,524.9,286.5z M559.4,326.3c-0.2-0.1-0.3-0.1-0.4-0.2
		c-0.4-0.2-0.8-0.3-1.2-0.2c-0.6,0.1-1.1,0.3-1.4,0.8c-0.9,1.1-1.1,2.3-0.7,3.7c0.2,0.6,0.6,1,1.2,1.2c0.4,0.1,0.8,0.1,1.2,0
		c0.1,0,0.2,0,0.3-0.1c0.1,0.3,0.3,0.3,0.5,0.4c0.1,0,0.2,0,0.2,0c0.3,0,0.4,0,0.5-0.3c0,0,0-0.1,0-0.1c0.1-0.5,0.2-0.9,0.3-1.4
		c0.3-1.4,0.5-2.9,0.8-4.3c0.1-0.3,0.1-0.5,0.1-0.8c0-0.2,0-0.3-0.2-0.3c-0.2-0.1-0.4-0.1-0.7-0.1c-0.2,0-0.3,0.1-0.3,0.3
		c0,0,0,0.1,0,0.1c-0.1,0.4-0.2,0.8-0.2,1.3C559.5,326.1,559.5,326.2,559.4,326.3z M587.5,240.4c-0.2-0.2-0.4-0.4-0.6-0.5
		c-0.4-0.3-0.8-0.4-1.3-0.4c-0.5,0-1,0.2-1.4,0.6c-0.9,0.8-1.3,1.8-1.4,2.9c0,0.8,0.5,1.6,1.5,1.9c0.1,0,0.3,0.1,0.4,0.1
		c0.2,0,0.4,0,0.5,0c0.1,0.3,0.1,0.3,0.4,0.5c0.1,0,0.2,0.1,0.3,0.1c0.2,0.1,0.3,0,0.4-0.1c0,0,0.1-0.1,0.1-0.1
		c0.9-1.9,1.9-3.8,2.8-5.7c0-0.1,0.1-0.2,0.1-0.2c0.1-0.3,0-0.4-0.2-0.6c-0.1-0.1-0.2-0.1-0.3-0.2c-0.3-0.1-0.4-0.1-0.5,0.2
		c-0.2,0.4-0.4,0.7-0.5,1.1C587.6,240.1,587.5,240.2,587.5,240.4z M566.6,332.1c0.2,0.2,0.4,0.3,0.6,0.3c0.1,0,0.2,0,0.3,0
		c0.2,0,0.3-0.1,0.4-0.3c0-0.1,0-0.1,0-0.2c0-1,0-2.1,0.1-3.1c0-1.1,0-2.2,0.1-3.3c0-0.1,0-0.1,0-0.2c0-0.2-0.1-0.3-0.3-0.3
		c-0.2,0-0.4,0-0.6,0c-0.2,0-0.3,0.1-0.3,0.3c0,0.1,0,0.2,0,0.3c0,0.4,0,0.8,0,1.1c0,0.1,0,0.2,0,0.3c-0.1,0-0.2-0.1-0.3-0.1
		c-0.4-0.1-0.8-0.2-1.2-0.1c-0.8,0.1-1.3,0.6-1.6,1.3c-0.5,1-0.5,2.1-0.1,3.1c0.4,1.1,1.5,1.6,2.6,1.1
		C566.3,332.2,566.4,332.1,566.6,332.1z M534,255.2c0.2,0,0.4,0,0.5-0.2c0.1-0.1,0.2-0.3,0.3-0.4c0.1-0.2,0.1-0.3,0-0.4
		c-0.1-0.1-0.2-0.2-0.3-0.2c-1.6-1.3-3.3-2.6-4.9-3.9c-0.1-0.1-0.2-0.1-0.2-0.2c-0.1-0.1-0.2-0.1-0.3,0c-0.2,0.2-0.4,0.4-0.5,0.7
		c0,0.2,0.2,0.3,0.3,0.4c0.3,0.3,0.7,0.5,1,0.8c0.1,0,0.1,0.1,0.1,0.2c-0.1,0.1-0.1,0.1-0.2,0.1c-0.1,0.1-0.1,0.1-0.2,0.2
		c-0.6,0.5-0.9,1.1-0.8,1.9c0,0.4,0.1,0.7,0.3,1c0.5,1,1.4,1.6,2.4,1.9c0.1,0,0.3,0.1,0.5,0.1c1,0,1.7-0.6,2-1.5
		C533.9,255.5,534,255.4,534,255.2z M595.6,250.7c0-0.2,0-0.4,0.1-0.6c0.4-1.1,1.1-1.9,2.3-2.3c0.5-0.2,1-0.1,1.5,0.2
		c0.2,0.2,0.4,0.4,0.6,0.6c0.3,0.4,0.4,0.8,0.5,1.2c0,0.1,0,0.1,0,0.2c0.1,0.2,0.2,0.3,0.4,0.1c0.2-0.1,0.3-0.3,0.4-0.4
		c0.2-0.2,0.3-0.5,0.2-0.8c-0.3-0.8-0.8-1.5-1.5-2c-0.9-0.6-1.8-0.7-2.8-0.3c-1.4,0.6-2.4,1.6-2.8,3.1c-0.2,0.7-0.2,1.3,0.1,1.9
		c0.5,1.1,1.5,1.8,2.7,2.1c0.1,0,0.3,0,0.3-0.1c0.2-0.2,0.4-0.4,0.6-0.6c0,0,0-0.1,0.1-0.1c0-0.1,0-0.2-0.1-0.3c-0.1,0-0.2,0-0.3,0
		c-0.6-0.1-1.2-0.3-1.6-0.7C595.8,251.7,595.6,251.3,595.6,250.7z M608.6,288c-0.3,0.3-0.3,0.3-0.3,0.7c0,0.1,0,0.1,0,0.2
		c0,0.3,0,0.3,0.3,0.4c0.1,0,0.2,0,0.2,0c0.4,0,0.9,0.1,1.3,0.1c0.6,0,1.1,0.1,1.7,0.1c1.1,0.1,1.8-0.4,2.1-1.5
		c0.1-0.5,0.1-1.1,0.1-1.6c0-0.1,0-0.3-0.1-0.4c-0.1-0.3-0.2-0.4-0.4-0.4c-0.1,0-0.1,0-0.2,0c-0.6,0-0.6,0.1-0.5,0.6
		c0.1,0.4,0.1,0.7,0.1,1.1c0,0.2-0.1,0.4-0.1,0.6c-0.1,0.2-0.2,0.4-0.4,0.4c-0.2,0-0.3,0-0.3-0.2c0-0.2,0-0.4,0-0.6
		c0-0.5-0.1-1.1-0.3-1.5c-0.1-0.3-0.3-0.5-0.6-0.7c-0.7-0.4-1.4-0.4-2.1,0c-0.6,0.4-0.8,1.3-0.7,1.8
		C608.4,287.4,608.5,287.7,608.6,288z M599.4,256.6c0,0.1-0.1,0.3,0,0.4c0.1,0.2,0.3,0.4,0.4,0.5c0.1,0.1,0.2,0.1,0.3,0
		c0.1,0,0.1-0.1,0.2-0.1c0.2-0.2,0.4-0.3,0.6-0.5c0.7-0.6,1.3-1.1,2-1.7c0.6-0.5,0.8-1.2,0.4-2c-0.4-0.8-1-1.3-1.6-1.8
		c-0.1-0.1-0.3-0.1-0.4,0c-0.1,0.1-0.2,0.2-0.4,0.3c-0.3,0.2-0.4,0.4,0.1,0.6c0.4,0.2,0.7,0.5,0.9,0.8c0.1,0.1,0.2,0.3,0.3,0.5
		c0.2,0.3,0.1,0.6-0.3,0.8c-0.1-0.1-0.2-0.1-0.2-0.2c-0.2-0.2-0.3-0.3-0.5-0.5c-0.3-0.3-0.6-0.5-1-0.7c-0.2-0.1-0.4-0.1-0.6-0.2
		c-0.8,0-1.3,0.3-1.7,0.9c-0.3,0.5-0.3,1.1,0,1.7c0.2,0.4,0.5,0.7,0.9,0.9C599,256.5,599.2,256.6,599.4,256.6z M537.4,251.5
		c0.4,0,0.4,0,0.7-0.2c0,0,0.1-0.1,0.1-0.1c0.3-0.3,0.3-0.4,0-0.7c-0.8-0.8-1.5-1.5-2.3-2.3c-0.1-0.1-0.3-0.3-0.5-0.4
		c-0.3-0.2-0.7-0.3-1.1-0.2c-0.3,0.1-0.6,0.2-0.8,0.4c-0.6,0.4-1,0.9-1.4,1.5c0,0.1-0.1,0.1-0.1,0.2c0,0.1,0,0.2,0,0.2
		c0.2,0.2,0.3,0.4,0.5,0.5c0.1,0.1,0.2,0,0.3-0.1c0.1-0.1,0.2-0.3,0.3-0.4c0.2-0.3,0.4-0.6,0.7-0.9c0.1-0.1,0.2-0.2,0.4-0.3
		c0.2-0.1,0.5-0.1,0.7,0c0.1,0.1,0.1,0.2,0.1,0.3c-0.1,0.1-0.1,0.2-0.2,0.2c-0.2,0.2-0.3,0.4-0.5,0.6c-0.2,0.3-0.4,0.6-0.5,1
		c-0.1,0.3-0.2,0.6-0.1,0.9c0.2,0.7,0.6,1.2,1.3,1.4c0.3,0.1,0.7,0.1,1,0c0.6-0.2,1-0.7,1.3-1.3
		C537.3,251.8,537.3,251.7,537.4,251.5z M603.8,263.5c-0.2,0.3-0.1,0.5,0,0.7c0,0.1,0.1,0.1,0.1,0.2c0.1,0.2,0.3,0.2,0.5,0.2
		c0.1,0,0.1-0.1,0.2-0.1c0.9-0.5,1.8-1,2.8-1.5c0.2-0.1,0.3-0.2,0.5-0.3c0.5-0.4,0.7-0.9,0.5-1.5c-0.2-0.9-0.7-1.6-1.3-2.2
		c0,0,0,0-0.1-0.1c-0.1-0.1-0.2-0.1-0.3,0c-0.2,0.1-0.4,0.2-0.6,0.4c-0.1,0.1-0.1,0.2,0,0.3c0.1,0.1,0.2,0.2,0.3,0.3
		c0.3,0.3,0.6,0.6,0.7,1c0.1,0.1,0.1,0.3,0.1,0.4c0,0.1,0,0.3-0.1,0.4c-0.1,0.1-0.2,0.2-0.4,0.2c-0.2-0.2-0.3-0.4-0.5-0.7
		c-0.2-0.3-0.5-0.6-0.8-0.9c-0.3-0.2-0.6-0.4-0.9-0.4c-0.8-0.1-1.3,0.2-1.8,0.8c-0.3,0.4-0.4,0.8-0.3,1.2c0.1,0.5,0.4,1,0.8,1.3
		C603.5,263.2,603.6,263.3,603.8,263.5z M554,242c0.4,0.2,0.4,0.2,0.8,0c0,0,0.1,0,0.1,0c0.3-0.1,0.4-0.2,0.3-0.6c0,0,0-0.1,0-0.1
		c-0.3-1-0.6-2-1-3c-0.1-0.2-0.2-0.4-0.3-0.6c-0.2-0.3-0.6-0.6-1-0.6c-0.3,0-0.6,0-1,0c-0.6,0.1-1.1,0.4-1.6,0.7
		c-0.1,0-0.1,0.1-0.2,0.1c-0.1,0.1-0.2,0.2-0.2,0.4c0,0.2,0.1,0.4,0.2,0.6c0.1,0.2,0.2,0.2,0.4,0.1c0.2-0.1,0.3-0.2,0.5-0.3
		c0.4-0.2,0.7-0.4,1.2-0.5c0.3-0.1,0.5,0,0.7,0.2c0.1,0.1,0.1,0.3-0.1,0.4c-0.1,0.1-0.2,0.1-0.3,0.2c-0.3,0.1-0.5,0.2-0.8,0.4
		c-0.3,0.2-0.6,0.4-0.9,0.7c-0.2,0.2-0.3,0.5-0.4,0.7c-0.1,0.7,0.1,1.3,0.6,1.8c0.2,0.2,0.4,0.3,0.7,0.3c0.7,0.1,1.3,0,1.8-0.5
		C553.8,242.2,553.9,242.1,554,242z M608.1,275.5c-0.2,0.1-0.3,0.3-0.2,0.6c0,0,0,0.1,0,0.1c0.1,0.5,0.2,0.6,0.7,0.5
		c0.9-0.2,1.7-0.4,2.6-0.6c0.3-0.1,0.7-0.2,1-0.3c0.5-0.2,0.8-0.6,0.9-1.2c0.1-0.9-0.1-1.8-0.6-2.6c0,0,0,0,0-0.1
		c-0.1-0.1-0.2-0.2-0.3-0.1c-0.2,0-0.3,0.1-0.5,0.1c-0.4,0.1-0.4,0.3-0.2,0.6c0.2,0.3,0.3,0.6,0.4,0.9c0.1,0.3,0.2,0.5,0.1,0.8
		c0,0.2-0.1,0.4-0.2,0.5c-0.2,0.2-0.3,0.1-0.4-0.1c-0.1-0.3-0.2-0.5-0.3-0.8c-0.1-0.3-0.2-0.6-0.4-0.9c-0.4-0.5-0.9-0.8-1.5-0.8
		c-0.7,0-1.2,0.3-1.5,0.9c-0.1,0.2-0.2,0.4-0.2,0.6c-0.1,0.6,0.1,1.2,0.5,1.6C607.9,275.3,608,275.4,608.1,275.5z M575.5,241.4
		c0.1,0.1,0.2,0.3,0.4,0.4c0.2,0,0.4,0.1,0.5,0.1c0.1,0,0.2-0.1,0.3-0.2c0-0.1,0.1-0.2,0.1-0.3c0.1-0.4,0.2-0.8,0.3-1.2
		c0.1-0.7,0.3-1.4,0.4-2.1c0.1-0.6,0-1.1-0.5-1.5c-0.2-0.1-0.4-0.3-0.6-0.3c-0.7-0.3-1.4-0.4-2.1-0.4c-0.1,0-0.1,0-0.2,0
		c-0.1,0-0.2,0.1-0.2,0.2c-0.1,0.2-0.1,0.5-0.1,0.7c0,0.1,0.1,0.2,0.2,0.2c0.1,0,0.1,0,0.2,0c0.3,0,0.6,0,1,0c0.3,0,0.5,0.1,0.8,0.2
		c0.2,0.1,0.3,0.2,0.4,0.4c0.1,0.2,0,0.4-0.3,0.4c-0.1,0-0.1,0-0.2,0c-0.5-0.1-0.9-0.1-1.4-0.1c-1,0-1.6,0.6-1.7,1.6
		c-0.1,0.7,0.2,1.4,0.9,1.8c0.3,0.1,0.6,0.2,0.9,0.2C574.9,241.6,575.2,241.5,575.5,241.4z M589,244.6c0.1,0.1,0.2,0.1,0.3,0.2
		c0.7,0.4,1.4,0.9,2.1,1.3c0.1,0.1,0.2,0.1,0.3,0.2c0.1,0.1,0.3,0,0.4-0.1c0.4-0.6,0.8-1.2,0.7-2c0-0.3-0.1-0.6-0.2-0.8
		c-0.7-1-2.1-1.7-3.5-0.8c-0.7,0.5-1.2,1.2-1.5,2c-0.2,0.9-0.1,1.6,0.6,2.3c0.5,0.6,1.2,0.9,1.9,1.1c0.4,0.1,0.7,0.1,1-0.5
		c0-0.1,0.1-0.2,0.1-0.3c0.1-0.1,0-0.3-0.2-0.3c-0.1,0-0.3,0-0.4,0c-0.5,0-1-0.2-1.4-0.5c-0.3-0.2-0.5-0.5-0.6-0.8
		C588.6,245.4,588.7,245,589,244.6z M570.7,326.5c-1.1,0-1.9,0.6-2.3,1.5c-0.4,1-0.3,2.1,0.2,3.1c0.3,0.5,0.7,0.8,1.2,1
		c0.6,0.2,1.2,0.2,1.9,0c0.3-0.1,0.7-0.2,1-0.4c0.2-0.1,0.3-0.3,0.3-0.5c0-0.2,0-0.4-0.1-0.6c0-0.2-0.2-0.2-0.3-0.1
		c-0.1,0-0.1,0.1-0.2,0.1c-0.4,0.3-0.8,0.5-1.3,0.5c-0.8,0.1-1.5-0.3-1.6-1.1c0-0.2,0-0.3,0.2-0.3c0.2,0,0.4,0,0.6,0
		c0.4,0,0.9-0.1,1.3-0.1c0.3,0,0.7-0.1,1-0.1c0.2,0,0.3-0.1,0.3-0.3c0-0.5-0.1-1.1-0.3-1.5c-0.3-0.5-0.7-0.9-1.3-1
		C571,326.6,570.9,326.6,570.7,326.5z M524,269.3c0-0.1,0.1-0.3,0.1-0.4c0.2-0.8,0.5-1.5,0.7-2.3c0-0.1,0.1-0.2,0.1-0.3
		c0.1-0.2,0-0.4-0.2-0.5c-0.1-0.1-0.3-0.1-0.4-0.1c-0.4-0.1-0.8-0.1-1.2-0.1c-0.4,0-0.7,0.2-0.9,0.4c-0.9,0.8-1.2,2.5-0.2,3.5
		c0.8,0.8,1.8,1.2,3,1c0.5-0.1,0.9-0.3,1.3-0.7c0.7-0.8,0.9-1.8,0.8-2.8c0-0.1-0.1-0.3-0.2-0.3c-0.2-0.1-0.5-0.2-0.7-0.2
		c-0.2,0-0.3,0.1-0.3,0.3c0,0.2,0.1,0.4,0.1,0.6c0,0.5,0,1-0.3,1.4C525.4,269.3,524.7,269.5,524,269.3z M603.7,314.1
		c0-0.4-0.1-0.7-0.3-1c-0.5-1-1.3-1.6-2.3-1.9c-0.3-0.1-0.6-0.1-0.9-0.1c-0.7,0.1-1.2,0.4-1.6,1c-0.6,0.8-0.7,1.6-0.2,2.5
		c0.5,1,1.3,1.6,2.3,1.9c0.5,0.2,1.1,0.1,1.5-0.1c0.7-0.4,1.1-0.9,1.4-1.7C603.7,314.4,603.7,314.2,603.7,314.1z M564.5,240.7
		c0.1,0,0.2,0,0.3,0c0.6-0.1,1.2-0.3,1.5-0.8c0.3-0.4,0.5-0.8,0.5-1.3c0.1-0.4,0.1-0.9,0-1.3c-0.1-0.5-0.3-1-0.6-1.4
		c-0.3-0.4-0.7-0.6-1.1-0.7c-0.3-0.1-0.6-0.1-0.9-0.1c-0.9,0-1.6,0.4-1.9,1.2c-0.6,1.2-0.5,2.4,0.2,3.5c0.3,0.5,0.7,0.7,1.2,0.9
		C564,240.7,564.3,240.7,564.5,240.7z M519.5,281.3c-0.3,0.1-0.4,0.3-0.4,0.5c0,0.1,0,0.3,0,0.4c0,0.2,0.1,0.3,0.3,0.3
		c0.1,0,0.2,0,0.3,0c0.2,0,0.4,0,0.5,0c0.5,0,1,0,1.5,0.1c0.2,0,0.3,0,0.5,0c0.6,0,1.3,0,1.9,0.1c0,0,0.1,0,0.1,0
		c0.1,0,0.2-0.1,0.2-0.2c0-0.2,0.1-0.4,0.1-0.6c0-0.3-0.1-0.3-0.4-0.4c-0.7,0-1.5-0.1-2.2-0.1c-0.4,0-0.8-0.1-1.2-0.1
		c-0.1,0-0.2-0.1-0.2-0.1c-0.2-0.4-0.4-0.7-0.4-1.2c0-0.3,0.2-0.5,0.5-0.6c0.3-0.1,0.7-0.1,1-0.1c0.4,0,0.8,0,1.1,0.1
		c0.4,0,0.8,0,1.3,0c0.1,0,0.2,0,0.2,0c0.2,0,0.3-0.1,0.3-0.4c0-0.1,0-0.3,0-0.4c0-0.3-0.1-0.4-0.4-0.4c-0.1,0-0.2,0-0.3,0
		c-0.7,0-1.4-0.1-2.1-0.1c-0.2,0-0.4,0-0.7,0c-0.4,0-0.8,0-1.1,0.2c-0.6,0.2-1,0.7-1,1.4c0,0.5,0,0.9,0.3,1.3
		C519.4,281.1,519.4,281.1,519.5,281.3z M569.4,235.5c-0.2-0.3-0.3-0.4-0.7-0.4c-0.1,0-0.2,0-0.3,0c-0.2,0-0.3,0.1-0.3,0.3
		c0,0.2-0.1,0.4-0.1,0.6c-0.1,0.7-0.1,1.4-0.2,2.1c0,0.4-0.1,0.8-0.1,1.2c0,0.2,0,0.5-0.1,0.7c0,0.3,0.1,0.4,0.3,0.4
		c0.1,0,0.2,0,0.4,0c0.3,0,0.4-0.1,0.5-0.4c0-0.1,0-0.1,0-0.2c0-0.4,0.1-0.7,0.1-1.1c0-0.5,0.1-1,0.1-1.5c0.1-0.6,0.1-0.6,0.6-0.8
		c0.3-0.1,0.6-0.2,0.9-0.1c0.3,0.1,0.4,0.2,0.4,0.5c0,0.2,0,0.4,0,0.6c0,0.4-0.1,0.7-0.1,1.1c0,0.5-0.1,1-0.1,1.5c0,0.2,0,0.3,0,0.5
		c0,0.1,0.1,0.2,0.2,0.3c0.2,0.1,0.4,0.1,0.7,0.1c0.1,0,0.2-0.1,0.3-0.2c0-0.1,0.1-0.3,0.1-0.4c0-0.4,0.1-0.9,0.1-1.3
		c0-0.3,0.1-0.7,0.1-1c0-0.3,0-0.7,0.1-1c0-0.3-0.1-0.6-0.3-0.9c-0.3-0.5-0.7-0.8-1.3-0.8c-0.4,0-0.8,0-1.1,0.2
		C569.5,235.5,569.4,235.5,569.4,235.5z M530.3,260.5c-0.1-0.2-0.1-0.4-0.2-0.6c-0.3-0.9-1.7-1.5-2.5-0.6c-0.1,0.1-0.2,0.2-0.3,0.4
		c-0.2,0.2-0.3,0.3-0.5,0.5c-0.1,0.1-0.2,0.2-0.3,0.2c-0.2,0.1-0.4,0.1-0.5,0c-0.2-0.1-0.2-0.3-0.2-0.5c0.1-0.5,0.4-0.9,0.8-1.1
		c0.1-0.1,0.3-0.2,0.4-0.3c0.2-0.1,0.2-0.3,0-0.5c-0.1-0.1-0.3-0.1-0.4-0.2c-0.3-0.2-0.5-0.1-0.7,0.1c-0.2,0.2-0.4,0.3-0.5,0.5
		c-0.3,0.4-0.6,0.9-0.7,1.4c-0.2,1.2,0.8,2,1.7,1.9c0.4,0,0.7-0.2,0.9-0.4c0.2-0.2,0.4-0.4,0.6-0.7c0.1-0.1,0.3-0.3,0.5-0.4
		c0.2-0.1,0.3-0.1,0.5,0c0.2,0.1,0.3,0.3,0.3,0.6c-0.1,0.4-0.3,0.7-0.6,1c-0.2,0.2-0.4,0.3-0.7,0.5c-0.1,0.1-0.2,0.1-0.3,0.2
		c-0.1,0.1-0.1,0.2,0,0.3c0.2,0.1,0.3,0.2,0.5,0.3c0.3,0.2,0.5,0.1,0.7-0.1c0.5-0.4,1-1,1.2-1.6
		C530.3,261.1,530.3,260.8,530.3,260.5z M567.4,251c0.1,0,0.2,0.1,0.3,0.1c0.1,0,0.1,0,0.2-0.1c-0.2-0.2-0.5-0.3-0.7-0.5
		c0.1,0,0.1,0,0.2,0c0,0,0.1-0.1,0.1-0.1c0,0,0-0.1,0-0.1c-0.1-0.1-0.3-0.2-0.4-0.2c-0.3-0.1-0.7-0.2-1.1-0.2c-0.5,0-1.1,0-1.6,0.2
		c-0.3,0.1-0.5,0.2-0.7,0.4c-0.1,0.1-0.2,0.2-0.2,0.3c0,0.2-0.1,0.3-0.2,0.4c-0.2,0.2-0.5,0.5-0.7,0.7c-0.1,0.1-0.1,0.2-0.2,0.3
		c0,0,0,0.1,0,0.1c0,0,0.1,0,0.1,0c0.1-0.1,0.2-0.1,0.3-0.2c-0.1,0.1-0.1,0.1-0.1,0.1c-0.2,0.2-0.3,0.4-0.3,0.6
		c-0.1,0.3,0,0.4,0.3,0.4c0,0,0.1,0,0.1,0c0,0.1,0,0.3,0,0.4c0,0.1,0.1,0.2,0.2,0.2c0.2,0,0.4,0,0.5-0.2c0.2-0.2,0.2-0.4,0.3-0.6
		c0.1-0.2,0-0.3-0.2-0.4c0,0,0-0.1-0.1-0.1c0.3,0,0.5,0,0.7-0.1c0.2,0,0.4-0.1,0.6-0.1c0.5-0.1,0.8-0.5,0.9-0.9
		c0-0.1,0.1-0.3,0.1-0.5c0.1,0.1,0.1,0.2,0.1,0.2c0.1,0.2,0.2,0.5,0.4,0.7c0.4,0.5,0.9,0.8,1.5,0.8c0.2,0,0.4,0,0.6,0.1
		c0.2-0.1,0.3-0.3,0.3-0.5c0-0.2,0-0.3-0.2-0.4C568,251.7,567.7,251.4,567.4,251z M570.8,262.4c0.1-0.1,0.2-0.1,0.2-0.1
		c0.2-0.1,0.3-0.3,0.5-0.4c0.5-0.5,1.1-0.7,1.7-0.7c0.2,0,0.4,0,0.6,0c0.6,0,1.3-0.1,1.9-0.2c0.7-0.2,1.4-0.4,2.2-0.6
		c0.2,0,0.3-0.2,0.3-0.3c0-0.1,0.1-0.2,0.1-0.2c0.2-0.6,0.5-1.3,0.6-1.9c0.1-0.3,0.3-0.6,0.6-0.7c0.2-0.1,0.3-0.2,0.5-0.3
		c0.3-0.1,0.6-0.4,0.7-0.7c0.2-0.6,0.5-1.2,0.7-1.8c0-0.1,0.1-0.2,0.1-0.3c0.1-0.2,0.1-0.4,0-0.6c0-0.1-0.1-0.2-0.2-0.2
		c-0.1,0-0.2,0-0.2,0.1c0,0.1-0.1,0.2-0.1,0.3c-0.2,0.4-0.4,0.8-0.6,1.2c-0.3,0.5-0.6,1.1-1,1.6c-0.6,0.9-1.2,1.8-1.7,2.7
		c-0.1,0.1-0.2,0.2-0.3,0.3c-0.3,0.1-0.6,0.2-0.9,0.3c-0.3,0.1-0.7,0.2-1.1,0.2c-0.8,0-1.6,0-2.4,0c-0.5,0-0.9,0.1-1.4,0.2
		c-0.5,0.1-0.8,0.4-0.9,0.8c-0.1,0.2-0.1,0.4-0.2,0.6C570.7,261.9,570.7,262.1,570.8,262.4z M557.8,235.7c-0.3,0-0.5,0-0.7,0.1
		c-1.2,0.3-1.8,1.2-1.9,2.1c-0.1,0.9,0.1,1.7,0.5,2.4c0.3,0.5,0.8,0.9,1.5,1c0.4,0.1,0.9,0,1.3-0.1c0.4-0.1,0.7-0.2,1-0.4
		c0.1-0.1,0.3-0.2,0.3-0.4c0.1-0.3,0-0.7-0.2-1c0-0.1-0.2-0.1-0.3,0c-0.1,0.1-0.2,0.2-0.3,0.3c-0.3,0.3-0.6,0.5-1,0.6
		c-0.4,0.1-0.7,0-1-0.3c-0.2-0.2-0.3-0.4-0.4-0.7c-0.2-0.4-0.2-0.9-0.2-1.4c0-0.7,0.6-1.2,1.3-1.2c0.3,0,0.6,0.1,0.9,0.2
		c0.1,0,0.2,0.1,0.4,0.1c0.1,0,0.2,0,0.2-0.2c0-0.2,0-0.5-0.1-0.7c-0.1-0.2-0.2-0.4-0.4-0.4C558.3,235.8,558.1,235.7,557.8,235.7z
		 M611.3,281.7c0.4,0,0.8,0.1,1.1,0.2c0.4,0.2,0.6,0.5,0.6,1c0,0.5-0.1,0.8-0.4,1.2c-0.2,0.4-0.2,0.5,0.3,0.6c0.5,0.1,0.8-0.1,1-0.6
		c0.2-0.5,0.3-1,0.2-1.6c-0.1-0.7-0.5-1.2-1.1-1.6c-0.3-0.2-0.7-0.3-1.1-0.4c-0.8-0.1-1.5,0-2.2,0.3c-0.6,0.3-0.9,0.7-1.1,1.3
		c-0.1,0.5-0.2,1,0,1.5c0.1,0.3,0.2,0.5,0.3,0.8c0.1,0.1,0.2,0.2,0.3,0.3c0.3,0,0.6,0,0.8,0c0.2,0,0.2-0.2,0.1-0.3
		c-0.1-0.1-0.1-0.2-0.2-0.3c-0.2-0.3-0.3-0.7-0.3-1.1c0-0.5,0.2-0.8,0.6-1C610.5,281.8,610.9,281.7,611.3,281.7z M602.8,260.2
		c-0.1-0.2-0.2-0.2-0.3-0.4c-0.1-0.1-0.3-0.3-0.4-0.5c-0.1-0.2-0.1-0.4,0.1-0.5c0.1-0.1,0.2-0.2,0.3-0.3c0.6-0.4,1.3-0.9,1.9-1.3
		c0.1,0,0.1-0.1,0.2-0.1c0.2,0.3,0.4,0.6,0.6,0.9c0.2,0.4,0.3,0.4,0.7,0.2c0,0,0,0,0,0c0.4-0.2,0.4-0.4,0.1-0.7
		c-0.1-0.2-0.3-0.4-0.4-0.6c-0.2-0.3-0.2-0.4,0.1-0.5c0.1,0,0.1-0.1,0.2-0.1c0.2-0.1,0.3-0.2,0.5-0.3c0.2-0.1,0.2-0.2,0.1-0.4
		c-0.1-0.2-0.2-0.4-0.4-0.5c-0.1-0.1-0.2-0.1-0.3-0.1c-0.2,0.1-0.4,0.3-0.6,0.4c-0.1,0.1-0.2,0.2-0.4,0.2c0,0-0.1-0.1-0.1-0.1
		c-0.3-0.2-0.3-0.2-0.6,0c-0.1,0-0.1,0.1-0.2,0.2c-0.1,0.1-0.2,0.2-0.1,0.4c0,0.1,0.1,0.2,0.1,0.3c-0.1,0.1-0.3,0.2-0.4,0.3
		c-0.6,0.4-1.2,0.9-1.9,1.3c-0.2,0.2-0.4,0.3-0.6,0.6c-0.2,0.3-0.3,0.6-0.2,1c0.1,0.6,0.5,1,0.9,1.4c0.1,0.1,0.2,0.1,0.3,0.1
		C602.4,260.6,602.7,260.5,602.8,260.2z M523.6,273.1c-0.1,0.1-0.3,0.1-0.4,0.1c-0.3,0-0.6,0.1-0.9,0.1c-0.6,0.1-1.2,0.2-1.7,0.2
		c-0.1,0-0.3,0.1-0.4,0.1c-0.1,0-0.2,0.1-0.3,0.2c-0.1,0.3-0.1,0.5-0.2,0.8c0,0.1,0.1,0.2,0.2,0.2c0.1,0,0.1,0,0.2,0
		c0.5-0.1,1.1-0.1,1.6-0.2c0.6-0.1,1.3-0.2,1.9-0.3c0.5-0.1,0.9-0.2,1.4-0.2c0.3,0,0.4-0.2,0.5-0.4c0-0.1,0-0.2,0-0.2
		c0-0.2,0-0.4-0.3-0.6c-1.4-0.9-2.7-1.7-4.1-2.6c-0.1-0.1-0.2-0.1-0.3-0.1c-0.1-0.1-0.2,0-0.3,0.1c0,0.1-0.1,0.2-0.1,0.4
		c-0.1,0.6,0,0.6,0.3,0.8c0,0,0,0,0.1,0c0.8,0.5,1.5,0.9,2.3,1.4C523.4,272.9,523.5,273,523.6,273.1z M563.2,260.7
		c0.1,0.1,0.1,0.1,0.1,0.1c0.6,0.5,1.2,0.9,1.9,1.3c0.3,0.2,0.7,0.2,1,0.1c0.8-0.3,1.5-0.5,2.3-0.8c0.4-0.2,0.8-0.4,1.1-0.6
		c0.1-0.1,0.2-0.1,0.2-0.3c0-0.2-0.2-0.2-0.3-0.2c-0.4,0-0.7-0.1-1.1-0.1c-0.2,0-0.2,0-0.3,0.2c0,0.2-0.1,0.2-0.3,0.2
		c-0.5,0-1,0.3-1.3,0.6c-0.1,0.1-0.3,0.2-0.4,0.2c-0.2,0.1-0.3,0.1-0.4,0c-0.1,0-0.1-0.1-0.2-0.2c-0.1-0.2-0.3-0.4-0.4-0.6
		c0,0,0,0,0-0.1c0.1,0,0.2,0.1,0.3,0.1c0.1,0,0.2,0.1,0.3,0.1c0.3,0.1,0.5,0,0.7-0.1c0.2-0.1,0.3-0.3,0.5-0.4
		c0.1-0.1,0.2-0.3,0.1-0.5c0-0.1-0.1-0.2-0.1-0.2c-0.1,0-0.2,0-0.2,0.1c0,0.1-0.1,0.1-0.1,0.2c0,0-0.1,0.1-0.1,0.1
		c-0.1-0.2,0-0.3,0.1-0.4c0.1-0.2,0.2-0.5,0.3-0.7c0-0.1,0-0.2,0-0.2c-0.1-0.1-0.2,0-0.2,0.1c-0.1,0-0.1,0.1-0.2,0.1
		c-0.3,0.2-0.5,0.3-0.8,0.1c-0.1-0.1-0.2-0.2-0.3-0.2c-0.2-0.1-0.3-0.2-0.5-0.3c-0.1-0.1-0.3,0-0.3,0.1c0,0.1,0,0.2-0.1,0.3
		c-0.1,0.6-0.4,1.2-1,1.5C563.3,260.5,563.3,260.6,563.2,260.7z M579.9,260.5c-0.1,0.1-0.1,0.1-0.2,0.1c-0.2,0.3-0.5,0.5-0.8,0.6
		c-0.4,0.1-0.6,0.4-0.6,0.8c0,0.1,0,0.1,0,0.2c-0.1,0.6-0.1,1.2-0.2,1.8c0,0.1,0,0.1,0,0.2c0,0.2,0.1,0.3,0.3,0.3c0.3,0,0.5,0,0.8,0
		c0.6,0,1.3,0,1.9,0.2c0.1,0,0.1,0,0.2,0c0.1,0,0.1,0,0.2,0c0-0.1,0-0.2-0.1-0.3c-0.3-0.8-0.6-1.5-0.8-2.3c-0.1-0.4-0.3-0.9-0.5-1.3
		C580.1,260.7,580,260.6,579.9,260.5z M586.2,322.7C586.1,322.6,586.1,322.7,586.2,322.7c-0.3-0.3-0.6-0.3-0.8-0.1
		c-0.1,0-0.2,0.1-0.3,0.2c-0.1,0.1-0.2,0.2-0.1,0.4c0,0.1,0.1,0.1,0.1,0.2c0.4,0.7,0.7,1.5,1.1,2.2c0.3,0.6,0.7,1.3,0.9,1.9
		c0,0.1,0,0.1,0.1,0.2c0.1,0.2,0.2,0.2,0.4,0.2c0.2,0,0.3-0.1,0.4-0.2c0.1-0.1,0.1-0.3,0.2-0.4c0.1-0.1,0.1-0.3,0-0.4
		c0-0.1-0.1-0.2-0.1-0.2c-0.4-0.7-0.8-1.5-1.1-2.2c-0.1-0.1-0.1-0.2-0.2-0.3c-0.1-0.2,0-0.4,0.1-0.6c0.2-0.3,0.4-0.5,0.7-0.6
		c0.1,0,0.2-0.1,0.2-0.1c0.1-0.1,0.2-0.2,0.1-0.4c-0.1-0.2-0.2-0.4-0.3-0.6c-0.1-0.1-0.2-0.2-0.4-0.1c-0.1,0-0.2,0.1-0.3,0.1
		c-0.3,0.2-0.5,0.4-0.7,0.7C586.3,322.5,586.2,322.6,586.2,322.7z M546.8,328.1c0.1-0.1,0.2-0.1,0.2-0.1c0.1-0.1,0.1-0.2,0.2-0.4
		c0.8-1.8,1.6-3.6,2.5-5.4c0.1-0.2,0.1-0.3,0.2-0.5c0.1-0.1,0-0.2-0.1-0.3c-0.2-0.1-0.3-0.2-0.5-0.2c-0.3-0.1-0.4-0.1-0.5,0.2
		c-0.1,0.3-0.3,0.6-0.4,0.8c-0.8,1.7-1.5,3.3-2.3,5c-0.2,0.5-0.3,0.6,0.3,0.8C546.5,328,546.7,328,546.8,328.1z M578.4,242.5
		c0.2,0,0.3,0,0.4-0.2c0-0.1,0.1-0.2,0.1-0.3c0.6-1.9,1.2-3.8,1.8-5.7c0.1-0.2,0.1-0.4,0.2-0.6c0.1-0.2,0-0.3-0.2-0.4
		c-0.2-0.1-0.3-0.1-0.5-0.2c-0.2,0-0.3,0-0.4,0.2c0,0.1-0.1,0.2-0.1,0.3c-0.6,2-1.3,4-1.9,6.1c0,0.1,0,0.2-0.1,0.2
		c0,0.1,0,0.2,0.2,0.3C578,242.4,578.2,242.4,578.4,242.5z M523.7,263c-0.1,0-0.1,0-0.1,0c-0.3,0-0.4,0.1-0.5,0.4
		c0,0.1-0.1,0.2-0.1,0.4c0,0.1,0,0.2,0.1,0.3c0.1,0.1,0.2,0.1,0.3,0.2c1.3,0.6,2.6,1.2,3.9,1.7c0.1,0,0.2,0.1,0.3,0.1
		c0.2,0,0.2,0,0.3-0.1c0.1-0.1,0.1-0.3,0.2-0.4c0.2-0.4,0.1-0.5-0.3-0.6c-0.8-0.3-1.6-0.7-2.3-1c-0.1,0-0.2-0.1-0.3-0.1
		c-0.3-0.1-0.4-0.3-0.4-0.6c0-0.4,0-0.7,0.2-1c0.2-0.3,0.1-0.4-0.2-0.6c-0.2-0.1-0.3-0.1-0.5-0.2c-0.2-0.1-0.3,0-0.4,0.1
		c-0.1,0.1-0.1,0.2-0.1,0.3c-0.1,0.3-0.1,0.6-0.1,0.9C523.6,262.8,523.6,262.9,523.7,263z M613.2,278.3c0.1,0,0.1-0.1,0.1-0.1
		c0.3-0.1,0.3-0.2,0.3-0.5c0-0.2-0.1-0.3-0.1-0.5c0-0.1-0.1-0.2-0.2-0.2c-0.1,0-0.3,0-0.4,0c-0.3,0-0.7,0.1-1,0.1
		c-0.8,0.1-1.7,0.2-2.5,0.3c-0.2,0-0.5,0.1-0.7,0.1c-0.1,0-0.2,0-0.2,0.1c-0.2,0.1-0.3,0.2-0.2,0.3c0,0.2,0,0.4,0.1,0.5
		c0,0.2,0.1,0.2,0.3,0.2c0.1,0,0.1,0,0.2,0c0.3,0,0.6-0.1,1-0.1c0.6-0.1,1.2-0.1,1.9-0.2c0.3,0,0.5,0,0.7,0.3
		c0.2,0.2,0.3,0.5,0.3,0.8c0,0.1,0,0.3,0.1,0.4c0,0.2,0.1,0.3,0.3,0.2c0.2,0,0.4,0,0.6-0.1c0.2,0,0.3-0.1,0.3-0.3
		c0-0.2,0-0.4-0.1-0.6c-0.1-0.2-0.2-0.4-0.4-0.6C613.3,278.4,613.3,278.4,613.2,278.3z M584.3,256.6c-0.1,0.1-0.1,0.2-0.1,0.3
		c0,0.4-0.1,0.9-0.1,1.3c-0.1,0.9-0.1,1.8-0.2,2.7c0,0.4,0,0.7-0.1,1.1c0,0.1,0,0.3,0,0.4c0,0.2,0.1,0.3,0.3,0.3
		c0.4,0,0.8,0,1.2,0.1c0.3,0,0.7,0,1,0c0.1-0.1,0-0.2,0-0.3c-0.1-0.4-0.2-0.7-0.3-1.1c-0.5-1.5-1-2.9-1.5-4.3
		C584.4,256.8,584.3,256.8,584.3,256.6z M566,257.6c0.2,0,0.2,0,0.3,0c0.3,0,0.6-0.2,0.8-0.4c0.4-0.4,0.5-0.9,0.3-1.5
		c0-0.1-0.1-0.2-0.2-0.3c-0.1,0-0.2-0.1-0.4,0c-0.1,0.1-0.2,0.3-0.3,0.4c-0.1,0.1-0.3,0.1-0.4,0.1c-0.3,0-0.3,0-0.4-0.2
		c0.1,0,0.2,0,0.3,0c0.1,0,0.1-0.1,0.1-0.1c0-0.1,0-0.1-0.1-0.1c-0.1,0-0.2-0.1-0.3-0.1c-0.6-0.1-1.2,0.1-1.8,0.4
		c-0.2,0.1-0.2,0.2-0.2,0.5c0.1,0.3,0.2,0.7,0.4,1c0.1,0.3,0.3,0.5,0.6,0.8c0.3,0.3,0.7,0.4,1.1,0.4c0.1,0,0.3,0,0.4-0.1
		c0.2-0.1,0.2-0.3,0.1-0.5C566.1,257.7,566.1,257.7,566,257.6z M566.8,289.5C566.8,289.5,566.9,289.5,566.8,289.5
		c0.2,0,0.2-0.1,0.3-0.1c0.5-0.3,0.8-0.8,1-1.3c1.1-3,2-6.1,2.5-9.2c0-0.2,0.1-0.4,0.1-0.6c-0.1,0.1-0.1,0.2-0.2,0.3
		c-0.2,0.8-0.4,1.5-0.7,2.3c-0.6,2-1.4,4-2.1,5.9c-0.3,0.8-0.6,1.6-0.9,2.4C566.8,289.2,566.7,289.3,566.8,289.5z M527.4,255.6
		c-0.1,0-0.1,0-0.1,0.1c-0.1,0.2-0.3,0.4-0.4,0.6c-0.1,0.1,0,0.2,0.1,0.3c0.1,0,0.1,0.1,0.2,0.1c1.2,0.8,2.5,1.6,3.7,2.4
		c0.1,0,0.1,0.1,0.2,0.1c0.1,0.1,0.2,0.1,0.3-0.1c0.1-0.2,0.3-0.4,0.4-0.6c0.1-0.2,0-0.3-0.1-0.4c-0.1-0.1-0.1-0.1-0.2-0.1
		c-1.2-0.8-2.4-1.6-3.6-2.4c-0.1-0.1-0.2-0.1-0.3-0.1C527.5,255.7,527.4,255.6,527.4,255.6z M560.9,240.8c0,0,0.1,0,0.2,0
		c0.3-0.1,0.4-0.2,0.4-0.5c0-0.2-0.1-0.5-0.1-0.7c-0.1-0.6-0.2-1.2-0.2-1.7c-0.1-0.6-0.1-1.2-0.2-1.7c0-0.1,0-0.3-0.1-0.4
		c0-0.1-0.1-0.2-0.3-0.3c-0.2,0-0.4,0-0.7,0.1c-0.1,0-0.2,0.1-0.2,0.2c0,0.1,0,0.3,0,0.4c0,0.3,0.1,0.6,0.1,1
		c0.1,0.6,0.1,1.2,0.2,1.8c0.1,0.5,0.1,1.1,0.2,1.6c0,0.1,0,0.1,0,0.2c0,0.2,0.1,0.2,0.3,0.2C560.7,240.8,560.8,240.8,560.9,240.8z
		 M524.9,276.7c0-0.4-0.1-0.5-0.4-0.5c-0.1,0-0.2,0-0.3,0c-0.7-0.1-1.5-0.2-2.2-0.3c-0.6-0.1-1.2-0.2-1.9-0.2c-0.1,0-0.2,0-0.3,0
		c-0.2,0-0.3,0.1-0.3,0.3c0,0.2-0.1,0.4-0.1,0.6c0,0.2,0.1,0.3,0.3,0.3c0.4,0.1,0.8,0.1,1.2,0.2c0.5,0.1,1.1,0.1,1.6,0.2
		c0.6,0.1,1.1,0.2,1.7,0.2C524.8,277.4,524.9,277.3,524.9,276.7C524.9,276.7,524.9,276.7,524.9,276.7z M579.5,311.2
		c0-0.1-0.1-0.1-0.1-0.2c-0.1-0.1-0.2-0.1-0.3-0.1c-1.1-0.3-2.2-0.5-3.4-0.6c-0.7,0-1.3,0-2,0.1c-0.8,0.1-1.5,0.2-2.3,0.5
		c-0.1,0-0.2,0.1-0.3,0.1c0,0,0,0.1-0.1,0.2c0.2,0.1,0.3,0.1,0.4,0.1c1.9,0,3.8,0,5.7,0c0.4,0,0.8,0,1.2,0
		C578.8,311.3,579.2,311.2,579.5,311.2z M563.6,254.8c-0.1,0-0.2,0.1-0.2,0.1c-0.1,0-0.1,0-0.1,0.1c-0.1,0.1-0.1,0.1-0.1,0.3
		c0,0.1,0.1,0.2,0.3,0.2c0.1,0,0.2,0,0.3-0.1c0.8-0.2,1.6-0.2,2.5-0.2c0.6,0,1.1,0.1,1.7,0.2c0.1,0,0.2,0,0.2,0
		c0.1,0,0.2-0.1,0.2-0.1c0-0.1,0-0.2-0.1-0.2c-0.1,0-0.1-0.1-0.2-0.1c-0.1,0-0.3-0.1-0.4-0.1c0.2,0,0.5,0,0.7-0.1
		c-0.1-0.1-0.1-0.2-0.2-0.2c0.1,0,0.1,0,0.2-0.1c-0.1-0.2-0.3-0.2-0.5-0.3c-0.7-0.2-1.4-0.2-2.1-0.2c-0.5,0-1.1,0-1.6,0.1
		c-0.2,0-0.3,0-0.4,0.1c-0.1,0-0.1,0.1-0.2,0.1c0.1,0.2,0.3,0,0.4,0.1c-0.1,0-0.3,0-0.4,0.1c-0.1,0-0.3,0.1-0.4,0.2c0,0,0,0.1,0,0.1
		c0,0,0,0.1,0.1,0.1C563.3,254.8,563.4,254.8,563.6,254.8z M582.3,262.8c0,0,0.1,0,0.1,0c0.2,0,0.4-0.1,0.5-0.1
		c0.5-0.1,0.5-0.2,0.6-0.7c0-0.5,0.1-0.9,0.1-1.4c0.1-0.7,0.1-1.5,0.1-2.2c0-0.2,0-0.4,0-0.6c0-0.1,0.1-0.3-0.1-0.3
		c-0.2,0-0.2,0.2-0.2,0.3c-0.4,1.5-0.8,3-1.2,4.6C582.3,262.5,582.3,262.6,582.3,262.8z M579.3,257.7c0.2,0,0.4,0,0.6,0
		c0.6-0.1,1.1-0.3,1.7-0.5c0.7-0.3,1.3-0.7,2-1c0.1-0.1,0.2-0.1,0.3-0.2c0.1-0.1,0.1-0.3-0.1-0.4c-0.2,0-0.3,0-0.5,0
		c-0.4,0.1-0.8,0.2-1.1,0.4c-0.6,0.3-1.3,0.6-1.9,0.9c-0.2,0.1-0.3,0.2-0.5,0.3C579.7,257.3,579.5,257.5,579.3,257.7z M565.7,252
		c-0.1,0-0.1,0.1-0.1,0.1c-0.4,0.4-0.8,0.6-1.3,0.7c-0.2,0-0.3,0.2-0.3,0.3c-0.1,0.2,0,0.4,0.3,0.4c0.3,0,0.5,0.1,0.8,0.2
		c0.2,0.1,0.4,0.1,0.6,0.2c0.2,0.1,0.4,0,0.6-0.1c0.2-0.1,0.3-0.2,0.5-0.2c0.1,0,0.2-0.1,0.3-0.3c0-0.1-0.1-0.1-0.2-0.2
		c-0.1-0.1-0.2-0.2-0.3-0.3c-0.3-0.2-0.5-0.4-0.7-0.7C565.8,252.1,565.8,252,565.7,252z M563.1,257.2c0.1,0.4,0,0.8,0.2,1.2
		c0.2-0.1,0.1-0.4,0.2-0.6c0,0.4,0.1,0.8,0.1,1.2c0,0.1,0,0.2,0,0.2c0,0.1,0.1,0.1,0.1,0.2c0.1-0.1,0.1-0.2,0.1-0.2
		c0.1-0.2,0.1-0.5,0.2-0.7c0.1-0.5,0.1-1-0.3-1.4c-0.2-0.3-0.4-0.7-0.5-1c0-0.1,0-0.1-0.1-0.2c0,0-0.1-0.1-0.1-0.1
		c0,0-0.1,0-0.1,0.1c0,0.1-0.1,0.2-0.1,0.4c-0.1,0.3-0.2,0.6-0.3,0.9c0,0.2,0,0.3,0,0.5c0,0.1,0.1,0.1,0.2,0.1c0,0,0.1-0.1,0.1-0.1
		C562.9,257.4,563,257.3,563.1,257.2z M577.1,264.7c0.2,0.1,0.3,0,0.5,0c0.3,0,0.4-0.2,0.4-0.4c0-0.2,0-0.3,0.1-0.5
		c0.1-0.5,0.1-1,0.2-1.5c0-0.1,0-0.3,0-0.4c0-0.1-0.1-0.1-0.1-0.1c-0.2,0-0.4,0.1-0.5,0.4c-0.1,0.4-0.2,0.7-0.3,1.1
		c-0.1,0.3-0.2,0.7-0.3,1.1C577,264.3,577,264.5,577.1,264.7z M568.2,256.7c-0.1,0.1-0.2,0.2-0.2,0.3c-0.3,0.5-0.4,1-0.4,1.5
		c0,0.3,0,0.6,0.1,0.8c0.1,0.3,0.3,0.5,0.7,0.7c0.1,0.1,0.3,0,0.3-0.1c0.1-0.1,0.1-0.2,0.1-0.2c0.1-0.3,0.1-0.6,0.1-0.9
		c0-0.1,0-0.1-0.2-0.1c0,0.1-0.1,0.2-0.1,0.2c-0.1,0.1-0.1,0.2-0.2,0.3c0,0.1-0.1,0.1-0.2,0.1c0,0-0.1-0.1-0.1-0.2
		c0-0.1,0-0.2,0.1-0.3c0-0.1,0-0.2,0-0.3c-0.2-0.1-0.2,0.2-0.4,0.2c0-0.1,0-0.1,0-0.2c0.1-0.3,0.2-0.6,0.3-0.9
		C568.3,257.3,568.3,257.1,568.2,256.7z M560.2,234.9c0,0,0.2,0,0.3,0c0.3,0,0.5-0.2,0.4-0.5c0-0.2-0.1-0.3-0.1-0.5
		c0-0.1-0.1-0.2-0.3-0.2c-0.2,0-0.5,0.1-0.7,0.1c-0.1,0-0.2,0.1-0.2,0.3c0,0.2,0,0.5,0.1,0.7c0,0.2,0.1,0.2,0.3,0.2
		C560,234.9,560.1,234.9,560.2,234.9z M525.9,254.6c0,0-0.1,0-0.1,0.1c-0.2,0.2-0.3,0.5-0.5,0.7c-0.1,0.1,0,0.2,0.1,0.3
		c0.2,0.1,0.4,0.3,0.6,0.4c0.1,0.1,0.3,0.1,0.3-0.1c0.2-0.2,0.3-0.5,0.4-0.7c0.1-0.1,0-0.2-0.1-0.3c-0.2-0.2-0.4-0.3-0.7-0.4
		C526,254.6,526,254.6,525.9,254.6z M519,276C519,276,519,276,519,276c0-0.1,0-0.1,0-0.2c0-0.3-0.1-0.5-0.4-0.5c-0.2,0-0.3,0-0.5,0
		c-0.1,0-0.2,0.1-0.2,0.2c0,0.2-0.1,0.5-0.1,0.7c0,0.2,0.1,0.3,0.2,0.4c0.2,0.1,0.4,0.1,0.6,0.1c0.2,0,0.3-0.1,0.3-0.3
		C519,276.3,519,276.2,519,276z M556.7,284.6c-0.1,0.2-0.1,0.4-0.1,0.5c0,0.7,0.2,1.3,0.4,1.9c0,0.1,0.1,0.1,0.1,0.2
		c0.1,0.1,0.2,0.1,0.3,0.1c0.1,0,0.1-0.1,0.1-0.2c0-0.1,0-0.2,0-0.2c-0.2-0.6-0.3-1.3-0.5-1.9c0-0.1-0.1-0.2-0.1-0.2
		C556.8,284.6,556.8,284.6,556.7,284.6z M554.3,283.3c0,0,0.1,0,0.1,0c0.8-0.1,1.5-0.2,2.3-0.4c0.4-0.1,0.9-0.3,1.3-0.4
		c0.1,0,0.2-0.1,0.3-0.2c-0.1,0-0.1,0-0.2,0c-1,0.2-1.9,0.3-2.9,0.6c-0.3,0.1-0.6,0.2-0.8,0.2C554.4,283.1,554.3,283.2,554.3,283.3z
		 M560.6,311.2c-0.1-0.2-0.2-0.2-0.3-0.2c-0.7-0.1-1.3-0.1-2-0.1c-0.3,0-0.6,0.1-0.9,0.1c-0.1,0-0.2,0.1-0.3,0.1
		c0.1,0.2,0.2,0.1,0.3,0.1c0.8,0,1.6,0,2.4,0C560.1,311.3,560.3,311.2,560.6,311.2z M564.9,286.2c-0.3,0.1-0.6,0.3-1.2,1
		c-0.1,0.1-0.1,0.1-0.2,0.2c0.2,0.2,0.4,0.2,0.6,0.3c0.2,0.1,0.2,0,0.3-0.1c0.2-0.4,0.3-0.8,0.5-1.2
		C565,286.4,565,286.3,564.9,286.2z M579.1,258.3c-0.2,0.4-0.2,0.8-0.3,1.2c0,0,0,0.1,0,0.1c0,0,0.1,0.1,0.1,0.1
		c0.2-0.1,0.4-0.2,0.4-0.5C579.5,258.8,579.4,258.6,579.1,258.3z M582.1,252.6c0.1-0.1,0.2-0.1,0.2-0.1c0.1-0.2,0.2-0.5,0.2-0.7
		c0-0.2-0.1-0.4-0.2-0.5c0,0-0.1-0.1-0.2-0.1C581.9,251.6,582,252.1,582.1,252.6z M562.7,259.7c-0.2,0-0.4,0.1-0.5,0.2
		c-0.2,0.2-0.2,0.4,0,0.5c0.1,0,0.2,0.1,0.2,0.1c0.2,0,0.3-0.1,0.4-0.3c0-0.1,0-0.2,0-0.3C562.8,259.8,562.7,259.7,562.7,259.7z
		 M582.8,253c0.3-0.1,0.5-0.3,0.5-0.5c0.1-0.2,0.1-0.5-0.1-0.8c-0.1,0.1-0.1,0.1-0.1,0.2C582.9,252.3,582.8,252.6,582.8,253z
		 M581.8,252.2c0.1-0.2,0.1-0.3,0.1-0.4c0-0.1-0.1-0.3-0.1-0.4c0,0-0.1-0.1-0.1-0.1c-0.1,0-0.1,0.1-0.1,0.1c0,0,0,0,0,0
		c0,0.3,0.1,0.5,0.2,0.7C581.8,252.2,581.8,252.2,581.8,252.2z M582.6,252.4C582.6,252.4,582.7,252.4,582.6,252.4
		c0.3-0.3,0.3-0.6,0.2-0.9c0-0.1-0.1-0.2-0.2-0.1c0,0.2,0,0.3,0,0.5C582.6,252,582.5,252.2,582.6,252.4z M579.8,258.3
		c-0.2-0.1-0.3-0.1-0.3,0c-0.1,0.1-0.1,0.2,0,0.3c0,0.1,0.1,0.1,0.1,0.2C579.8,258.7,579.8,258.5,579.8,258.3z M564.2,253.9
		c-0.1-0.2-0.3-0.3-0.4-0.2c-0.1,0-0.1,0.1-0.1,0.2C563.9,253.9,564.1,253.9,564.2,253.9z M578.5,259.9c0.2-0.3,0.2-0.3,0.2-0.4
		c0,0,0-0.1,0-0.1c0,0-0.1,0-0.1,0c0,0.1-0.1,0.1-0.1,0.2C578.5,259.7,578.5,259.8,578.5,259.9z"/>
	<path class="st5" d="M576.6,266.2c0.1,0.4,0.2,0.5,0.5,0.8c0.4,0.4,1,0.7,1.6,0.8c0.3,0,0.6,0,0.9,0c0.9-0.1,1.6-0.6,2-1.4
		c0-0.1,0.1-0.1,0-0.2c-0.8,0.4-1.6,0.6-2.4,0.6c-0.8,0-1.6-0.1-2.4-0.5C576.8,266.2,576.8,266.2,576.6,266.2z M581.9,264.2
		c0.4,0.7,1.1,1.2,1.8,1.4c1.1,0.4,2.5,0,3.1-1.4C585.2,264.9,583.6,264.8,581.9,264.2z"/>
	<path class="st5" d="M537.6,319.5c-0.1-0.1-0.1-0.2-0.2-0.2c-0.2-0.2-0.5-0.3-0.7-0.5c-0.1-0.1-0.2-0.1-0.3-0.1
		c-0.2,0-0.4-0.1-0.6,0.1c-0.4,0.3-0.4,0.8-0.1,1.1c0.3,0.3,0.7,0.4,1.1,0.5c0.1,0,0.2,0,0.3-0.1C537.2,320,537.4,319.8,537.6,319.5
		z"/>
	<path class="st5" d="M576.6,266.2c0.1,0,0.2,0.1,0.2,0.1c0.8,0.3,1.6,0.4,2.4,0.5c0.8,0,1.7-0.2,2.4-0.6c0.1,0.1,0,0.2,0,0.2
		c-0.4,0.8-1.1,1.3-2,1.4c-0.3,0-0.6,0.1-0.9,0c-0.6-0.1-1.1-0.3-1.6-0.8C576.9,266.7,576.8,266.5,576.6,266.2z"/>
	<path class="st5" d="M581.9,264.2c1.7,0.5,3.3,0.6,4.9,0c-0.6,1.3-2,1.7-3.1,1.4C583,265.4,582.4,264.9,581.9,264.2z"/>
	<path class="st5" d="M589.2,322.7c0,0,0-0.1-0.1-0.1c-0.1-0.4-0.1-0.7,0.1-1.1c0.2-0.3,0.5-0.5,0.9-0.6c0.1,0,0.3,0,0.4,0
		c0.3,0.1,0.4,0.3,0.6,0.5c0,0.1,0,0.1-0.1,0.1c-0.6,0.4-1.1,0.7-1.7,1.1C589.4,322.6,589.3,322.7,589.2,322.7z"/>
	<path class="st5" d="M577.7,329.9c-0.2-0.1-0.2-0.3-0.2-0.4c-0.3-1.1-0.6-2.2-0.9-3.3c-0.1-0.3-0.2-0.5-0.2-0.8
		c0-0.2,0-0.2,0.2-0.3c0.5-0.2,1-0.3,1.5-0.3c0.7,0,1.2,0.3,1.6,0.9c0.5,0.7,0.6,1.5,0.5,2.4c-0.1,0.5-0.3,0.9-0.7,1.2
		c-0.4,0.3-0.8,0.4-1.3,0.6C577.9,329.9,577.8,329.9,577.7,329.9z"/>
	<path class="st5" d="M584.4,325.2c-0.1,0-0.1,0.1-0.2,0.1c-0.6,0.2-1.2,0.5-1.8,0.7c0,0-0.1,0-0.1,0c-0.1-0.2-0.1-0.4,0-0.6
		c0.2-0.6,0.8-0.9,1.3-0.9C583.9,324.5,584.2,324.7,584.4,325.2z"/>
	<path class="st5" d="M564,262.4c0.1,0,0.1,0.1,0.2,0.1c0.2,0.2,0.3,0.4,0.5,0.5c0.1,0.1,0.3,0.3,0.4,0.4c0.3,0.3,0.7,0.5,1.1,0.5
		c0,0,0.1,0,0.2,0c-0.2,0.3-0.4,0.5-0.6,0.6c-0.1,0.1-0.2,0.1-0.4,0c-0.1-0.1-0.2-0.1-0.3-0.2C564.6,263.8,564.2,263.2,564,262.4
		C564,262.4,564,262.4,564,262.4z"/>
	<path class="st5" d="M568.3,263.8C568.3,263.8,568.2,263.8,568.3,263.8C568.2,263.8,568.3,263.8,568.3,263.8
		C568.3,263.8,568.3,263.8,568.3,263.8z"/>
	<path class="st5" d="M537.6,319.5c-0.2,0.3-0.4,0.5-0.6,0.7c-0.1,0.1-0.2,0.2-0.3,0.1c-0.4,0-0.8-0.2-1.1-0.5
		c-0.3-0.3-0.3-0.8,0.1-1.1c0.2-0.1,0.4-0.1,0.6-0.1c0.1,0,0.2,0.1,0.3,0.1c0.3,0.1,0.5,0.3,0.7,0.5
		C537.4,319.3,537.5,319.4,537.6,319.5z"/>
	<path class="st5" d="M554.2,328.1c-0.1,0.3-0.2,0.6-0.3,0.9c0,0.1-0.1,0.1-0.2,0.2c-0.4,0.2-0.8,0.3-1.3,0.1
		c-0.3-0.1-0.5-0.4-0.5-0.7c0-0.4,0.3-0.6,0.6-0.7C553.1,327.8,553.6,327.8,554.2,328.1C554.1,328,554.2,328,554.2,328.1z"/>
	<path class="st5" d="M537.6,246.4c0-0.3,0.1-0.6,0.3-0.8c0.2-0.2,0.4-0.3,0.7-0.5c0.2-0.1,0.3-0.1,0.5,0.1c0.1,0.1,0.1,0.1,0.2,0.2
		c0.4,0.5,0.7,1,1.1,1.5c0.2,0.3,0.2,0.5,0.1,0.8c-0.2,0.3-0.4,0.6-0.7,0.7c-0.2,0.1-0.5,0.1-0.7,0c-0.1,0-0.2-0.1-0.3-0.2
		c-0.5-0.4-0.9-0.9-1.1-1.4C537.7,246.7,537.7,246.6,537.6,246.4z"/>
	<path class="st5" d="M556.8,329.2c0-0.5,0.1-1,0.4-1.5c0.3-0.5,0.8-0.7,1.3-0.5c0.2,0.1,0.4,0.1,0.5,0.2c0.1,0.1,0.2,0.2,0.2,0.3
		c0,0.2-0.1,0.5-0.1,0.7c-0.1,0.4-0.2,0.8-0.2,1.3c-0.1,0.5-0.2,0.7-0.8,0.7c-0.2,0-0.4,0-0.6,0c-0.4-0.1-0.6-0.3-0.7-0.6
		C556.8,329.6,556.8,329.4,556.8,329.2z"/>
	<path class="st5" d="M585.1,244c-0.2,0-0.4,0-0.6-0.1c-0.3-0.2-0.5-0.4-0.5-0.8c0-0.2,0-0.4,0.1-0.6c0.1-0.4,0.3-0.9,0.6-1.2
		c0.1-0.1,0.2-0.2,0.3-0.3c0.3-0.2,0.6-0.3,0.9-0.2c0.3,0.1,0.6,0.3,0.8,0.5c0.1,0.1,0.1,0.2,0.1,0.4c-0.1,0.1-0.1,0.3-0.2,0.4
		c-0.2,0.5-0.5,1-0.7,1.5C585.8,243.9,585.7,244,585.1,244z"/>
	<path class="st5" d="M566.7,328.8c0,0.7,0,1.2-0.1,1.8c0,0.2-0.1,0.3-0.2,0.4c-0.4,0.3-0.8,0.3-1.3,0.2c-0.2,0-0.3-0.2-0.4-0.4
		c-0.1-0.2-0.1-0.3-0.2-0.5c-0.1-0.6-0.1-1.2,0.1-1.8c0.2-0.5,0.5-0.7,1-0.7c0.2,0,0.4,0,0.5,0c0.3,0,0.4,0.2,0.4,0.5
		C566.7,328.5,566.7,328.7,566.7,328.8z"/>
	<path class="st5" d="M532,255.9c0,0-0.2,0-0.3,0c-0.7-0.2-1.3-0.7-1.7-1.3c-0.2-0.4-0.2-0.8,0-1.2c0.1-0.2,0.3-0.4,0.5-0.5
		c0.2-0.1,0.3-0.1,0.5,0c0.1,0.1,0.3,0.2,0.4,0.3c0.4,0.3,0.8,0.6,1.2,1c0.1,0.1,0.2,0.1,0.2,0.2c0.1,0.1,0.1,0.2,0.1,0.3
		c0,0.3-0.1,0.6-0.3,0.9C532.6,255.8,532.4,255.9,532,255.9z"/>
	<path class="st5" d="M611,287.7c0,0.1,0,0.3,0,0.4c0,0.1-0.1,0.2-0.2,0.2c-0.1,0-0.2,0-0.3,0c-0.1,0-0.1,0-0.2,0
		c-0.2,0-0.3,0-0.5-0.1c-0.2-0.2-0.3-0.4-0.3-0.7c0-0.2,0-0.4,0-0.7c0-0.3,0.2-0.5,0.4-0.5c0.3-0.1,0.6-0.1,0.8,0.2
		c0.1,0.1,0.2,0.3,0.2,0.5C611,287.2,611,287.5,611,287.7C611,287.7,611,287.7,611,287.7z"/>
	<path class="st5" d="M601.2,255.2c-0.3,0.2-0.5,0.5-0.8,0.6c-0.1,0-0.2,0.1-0.2,0.1c-0.5-0.1-0.9-0.3-1.2-0.7
		c-0.2-0.3-0.2-0.5,0-0.8c0.2-0.3,0.5-0.4,0.8-0.3c0.1,0,0.2,0.1,0.3,0.1C600.6,254.5,600.9,254.8,601.2,255.2z"/>
	<path class="st5" d="M535.8,249.9c0.3,0.2,0.5,0.4,0.7,0.7c0.1,0.1,0.1,0.2,0.1,0.2c0,0.5-0.2,1-0.7,1.3c-0.4,0.3-1,0-1-0.5
		c0-0.2,0-0.3,0.1-0.5C535,250.7,535.5,250.1,535.8,249.9z"/>
	<path class="st5" d="M605.8,262.4c-0.3,0.2-0.6,0.4-0.9,0.5c-0.1,0-0.2,0-0.2,0c-0.4-0.2-0.8-0.5-1-1c-0.1-0.3-0.1-0.5,0.2-0.7
		c0.2-0.2,0.4-0.3,0.7-0.2c0.1,0.1,0.3,0.1,0.4,0.2C605.3,261.5,605.6,261.9,605.8,262.4z"/>
	<path class="st5" d="M553.3,239.7c0.1,0.1,0.1,0.1,0.1,0.2c0.1,0.2,0.2,0.5,0.2,0.8c0,0.1,0,0.1,0,0.2c-0.2,0.4-0.8,0.9-1.3,0.9
		c-0.2,0-0.3-0.1-0.5-0.2c-0.2-0.2-0.2-0.7,0-1c0.1-0.1,0.2-0.2,0.3-0.3C552.6,240,552.9,239.9,553.3,239.7z"/>
	<path class="st5" d="M608.5,274c0-0.4,0.2-0.6,0.4-0.7c0.3-0.1,0.6-0.1,0.8,0.1c0.1,0.1,0.2,0.3,0.3,0.4c0.1,0.3,0.2,0.6,0.3,0.9
		c0.1,0.2,0,0.2-0.2,0.3c-0.2,0.1-0.5,0.1-0.7,0.2c-0.1,0-0.2,0-0.2,0C608.8,274.9,608.5,274.5,608.5,274z"/>
	<path class="st5" d="M574.9,240.6c-0.2,0-0.4-0.1-0.5-0.1c-0.3-0.1-0.4-0.3-0.4-0.5c0-0.3,0.1-0.6,0.4-0.7c0.2-0.1,0.5-0.2,0.8-0.2
		c0.3,0,0.5,0.1,0.8,0.1c0.1,0,0.2,0.1,0.2,0.3c0,0.2-0.1,0.4-0.1,0.6c0,0.2-0.2,0.3-0.4,0.4C575.4,240.5,575.2,240.5,574.9,240.6z"
		/>
	<path class="st5" d="M591.5,245c-0.3-0.1-1.6-1-1.9-1.2c0.2-0.4,0.6-0.6,1-0.5c0.2,0,0.4,0.1,0.6,0.2c0.4,0.2,0.5,0.6,0.5,1
		C591.6,244.7,591.6,244.8,591.5,245z"/>
	<path class="st5" d="M571.6,328.5c-0.2,0-0.3,0.1-0.4,0.1c-0.5,0-1,0.1-1.5,0.1c-0.1,0-0.2,0-0.2,0c0-0.6,0.3-0.9,0.8-1.1
		c0.2,0,0.3-0.1,0.5-0.1c0.4,0,0.6,0.2,0.8,0.5C571.5,328.2,571.6,328.3,571.6,328.5z"/>
	<path class="st5" d="M523.1,268.9c-0.6-0.3-0.8-0.8-0.7-1.4c0.1-0.2,0.1-0.4,0.2-0.5c0.1-0.2,0.4-0.3,0.6-0.4c0.2,0,0.4,0,0.5,0.1
		c0,0.4-0.2,0.7-0.3,1.1C523.3,268.2,523.3,268.6,523.1,268.9z"/>
	<path class="st5" d="M601.4,315.3c-0.2,0-0.3-0.1-0.5-0.1c-0.7-0.3-1.2-0.7-1.5-1.3c-0.4-0.8,0.2-1.6,0.9-1.7c0.1,0,0.2,0,0.3,0
		c0.8,0.2,1.4,0.7,1.8,1.5C602.8,314.3,602.3,315.3,601.4,315.3z"/>
	<path class="st5" d="M563.3,237.9c0-0.5,0-0.9,0.2-1.2c0.1-0.3,0.3-0.5,0.6-0.6c0.8-0.2,1.2,0,1.5,0.7c0.2,0.6,0.3,1.3,0.1,2
		c-0.1,0.3-0.2,0.5-0.4,0.6c-0.4,0.2-0.8,0.2-1.2,0.1c-0.3-0.1-0.4-0.3-0.5-0.5C563.4,238.6,563.3,238.2,563.3,237.9z"/>
	<path class="st5" d="M565.1,256.6c0.2-0.2,0.5-0.3,0.8-0.3c0.2,0,0.4,0.1,0.6,0.3C566,256.9,565.6,256.8,565.1,256.6z"/>
	<path class="st5" d="M565.7,257.1c0.1-0.1,0.3-0.1,0.5,0C565.9,257.2,565.8,257.1,565.7,257.1z"/>
</g>
</svg>
